<svg width="24" height="24" viewBox="0 0 24 24" fill="none" xmlns="http://www.w3.org/2000/svg">
<g clip-path="url(#clip0_544_81)">
<path d="M20.9 4.291C20.5478 3.32722 19.9082 2.4948 19.0676 1.90623C18.2271 1.31767 17.2261 1.00134 16.2 1H7.80001C6.77388 1.00134 5.77291 1.31767 4.93236 1.90623C4.09181 2.4948 3.45222 3.32722 3.10001 4.291L0.400005 11.718C0.134454 12.4495 -0.000924732 13.2218 4.75387e-06 14V15C0.00178908 15.7728 0.183437 16.5346 0.53057 17.225C0.877702 17.9155 1.38079 18.5156 2.00001 18.978C2.00001 18.986 2.00001 18.992 2.00001 19V21C2.00001 21.7956 2.31608 22.5587 2.87868 23.1213C3.44129 23.6839 4.20436 24 5.00001 24C5.79565 24 6.55872 23.6839 7.12133 23.1213C7.68394 22.5587 8.00001 21.7956 8.00001 21V20H16V21C16 21.7956 16.3161 22.5587 16.8787 23.1213C17.4413 23.6839 18.2044 24 19 24C19.7957 24 20.5587 23.6839 21.1213 23.1213C21.6839 22.5587 22 21.7956 22 21V19C22 18.992 22 18.986 22 18.978C22.6192 18.5156 23.1223 17.9155 23.4694 17.225C23.8166 16.5346 23.9982 15.7728 24 15V14C24.001 13.2221 23.8656 12.4501 23.6 11.719L20.9 4.291ZM4.98201 4.975C5.19344 4.39717 5.57694 3.89805 6.08081 3.54491C6.58469 3.19177 7.18471 3.00159 7.80001 3H16.2C16.8156 3.00118 17.4161 3.19117 17.9204 3.54434C18.4246 3.8975 18.8085 4.39685 19.02 4.975L21.208 11H2.791L4.98201 4.975ZM6.00001 21C6.00001 21.2652 5.89465 21.5196 5.70711 21.7071C5.51958 21.8946 5.26522 22 5.00001 22C4.73479 22 4.48044 21.8946 4.2929 21.7071C4.10536 21.5196 4.00001 21.2652 4.00001 21V19.9C4.32913 19.9668 4.66416 20.0003 5.00001 20H6.00001V21ZM20 21C20 21.2652 19.8947 21.5196 19.7071 21.7071C19.5196 21.8946 19.2652 22 19 22C18.7348 22 18.4804 21.8946 18.2929 21.7071C18.1054 21.5196 18 21.2652 18 21V20H19C19.3359 20.0003 19.6709 19.9668 20 19.9V21ZM22 15C22 15.7956 21.6839 16.5587 21.1213 17.1213C20.5587 17.6839 19.7957 18 19 18H5.00001C4.20436 18 3.44129 17.6839 2.87868 17.1213C2.31608 16.5587 2.00001 15.7956 2.00001 15V14C2.00408 13.6633 2.04465 13.328 2.12101 13H4.00001V14C4.00001 14.2652 4.10536 14.5196 4.2929 14.7071C4.48044 14.8946 4.73479 15 5.00001 15C5.26522 15 5.51958 14.8946 5.70711 14.7071C5.89465 14.5196 6.00001 14.2652 6.00001 14V13H18V14C18 14.2652 18.1054 14.5196 18.2929 14.7071C18.4804 14.8946 18.7348 15 19 15C19.2652 15 19.5196 14.8946 19.7071 14.7071C19.8947 14.5196 20 14.2652 20 14V13H21.879C21.9554 13.328 21.996 13.6633 22 14V15Z" fill="url(#paint0_linear_544_81)"/>
</g>
<defs>
<linearGradient id="paint0_linear_544_81" x1="-1.92308" y1="-1.46429" x2="28.6587" y2="0.580256" gradientUnits="userSpaceOnUse">
<stop stop-color="#517FA4"/>
<stop offset="1" stop-color="#243949"/>
</linearGradient>
<clipPath id="clip0_544_81">
<rect width="24" height="24" fill="white"/>
</clipPath>
</defs>
</svg>
