<svg width="24" height="24" viewBox="0 0 24 24" fill="none" xmlns="http://www.w3.org/2000/svg">
<g clip-path="url(#clip0_544_42)">
<path d="M7.70677 9.25597C8.09777 9.64697 8.09777 10.28 7.70677 10.67C7.31577 11.061 6.68277 11.061 6.29277 10.67C5.90177 10.279 5.90177 9.64597 6.29277 9.25597C6.68377 8.86497 7.31677 8.86497 7.70677 9.25597ZM21.5588 15.341L20.9938 15.906C20.9668 17.139 20.4888 18.363 19.5588 19.305L16.3918 22.513C15.4488 23.468 14.1908 23.996 12.8488 24H12.8318C11.4968 24 10.2418 23.48 9.29777 22.536L1.88177 15.183C1.23177 14.534 0.917767 13.641 1.01777 12.73L1.78277 5.81397C1.83377 5.35797 2.18677 4.99497 2.64077 4.93297L9.52977 3.99097C10.4618 3.86697 11.3998 4.18397 12.0578 4.84197L19.5328 12.254C19.9198 12.641 20.2298 13.077 20.4638 13.542C21.2758 12.376 21.1618 10.747 20.1218 9.70697L12.5308 2.30197C12.3018 2.07297 11.9858 1.96697 11.6798 2.00997L4.79077 2.95197C4.24177 3.02597 3.73877 2.64297 3.66377 2.09697C3.58977 1.54997 3.97277 1.04597 4.51877 0.970973L11.4088 0.0279732C12.3298 -0.103027 13.2778 0.218973 13.9368 0.879973L21.5258 8.28497C23.4718 10.23 23.4828 13.392 21.5578 15.342L21.5588 15.341ZM18.1208 13.671L10.6458 6.25897C10.4228 6.03597 10.1098 5.93297 9.79877 5.97197L3.68377 6.80897L3.00477 12.949C2.97177 13.252 3.07577 13.55 3.29177 13.765L10.7078 21.118C11.2768 21.688 12.0298 21.999 12.8308 21.999H12.8408C13.6468 21.997 14.4018 21.68 14.9668 21.106L18.1338 17.898C19.2888 16.728 19.2828 14.831 18.1198 13.669L18.1208 13.671Z" fill="url(#paint0_linear_544_42)"/>
</g>
<defs>
<linearGradient id="paint0_linear_544_42" x1="-0.762822" y1="-2.5723" x2="27.2912" y2="-0.92519" gradientUnits="userSpaceOnUse">
<stop stop-color="#FF9A9E"/>
<stop offset="1" stop-color="#FAD0C4"/>
</linearGradient>
<clipPath id="clip0_544_42">
<rect width="24" height="24" fill="white"/>
</clipPath>
</defs>
</svg>
