<svg width="24" height="24" viewBox="0 0 24 24" fill="none" xmlns="http://www.w3.org/2000/svg">
<g clip-path="url(#clip0_544_49)">
<path d="M18.9998 12H16.3858L16.9258 7.669C17.0202 7.23091 17.0157 6.7773 16.9128 6.34114C16.8099 5.90497 16.6111 5.49721 16.3309 5.14748C16.0507 4.79775 15.6961 4.51483 15.2929 4.31929C14.8897 4.12374 14.448 4.02048 13.9998 4.017H11.6308C11.7398 3.246 11.6738 2.01 12.7648 2.005H15.9998C16.265 2.005 16.5194 1.89965 16.7069 1.71211C16.8945 1.52458 16.9998 1.27022 16.9998 1.005C16.9998 0.739788 16.8945 0.485434 16.7069 0.297898C16.5194 0.110362 16.265 0.00500488 15.9998 0.00500488H12.7648C12.0339 0.00545481 11.3283 0.272722 10.7805 0.756616C10.2328 1.24051 9.88046 1.90774 9.78983 2.633L9.61683 4.017H2.99983C2.56063 4.02172 2.12774 4.12214 1.73132 4.31128C1.33491 4.50042 0.984502 4.77373 0.704526 5.11215C0.424549 5.45058 0.221737 5.84599 0.110221 6.27082C-0.00129517 6.69566 -0.0188322 7.1397 0.0588319 7.572L1.57183 19.63C1.72482 20.8377 2.31276 21.9483 3.22556 22.7538C4.13836 23.5593 5.31345 24.0045 6.53083 24.006L18.9998 23.994C19.6564 23.994 20.3066 23.8647 20.9132 23.6134C21.5199 23.3621 22.0711 22.9938 22.5354 22.5295C22.9997 22.0652 23.368 21.5141 23.6192 20.9074C23.8705 20.3008 23.9998 19.6506 23.9998 18.994V17C23.9998 16.3434 23.8705 15.6932 23.6192 15.0866C23.368 14.48 22.9997 13.9288 22.5354 13.4645C22.0711 13.0002 21.5199 12.6319 20.9132 12.3806C20.3066 12.1293 19.6564 12 18.9998 12V12ZM21.9998 17H9.99983C9.99983 16.2044 10.3159 15.4413 10.8785 14.8787C11.4411 14.3161 12.2042 14 12.9998 14H18.9998C19.7955 14 20.5585 14.3161 21.1212 14.8787C21.6838 15.4413 21.9998 16.2044 21.9998 17ZM13.9998 6.016C14.1578 6.01686 14.3134 6.05472 14.4541 6.12656C14.5948 6.19841 14.7167 6.30222 14.8101 6.42969C14.9034 6.55715 14.9656 6.70472 14.9916 6.86055C15.0176 7.01638 15.0067 7.17614 14.9598 7.327L14.8728 8H11.1328L11.3808 6.014L13.9998 6.016ZM2.22383 6.39C2.31713 6.27378 2.43523 6.17987 2.5695 6.11516C2.70376 6.05045 2.85079 6.01658 2.99983 6.016H9.36683L9.11783 8H2.12383L2.02383 7.23C1.99178 7.08397 1.99312 6.93258 2.02775 6.78713C2.06238 6.64168 2.12941 6.50593 2.22383 6.39V6.39ZM3.55583 19.382L2.37583 10H14.6228L14.3718 12H12.9998C11.6737 12 10.402 12.5268 9.4643 13.4645C8.52662 14.4022 7.99983 15.6739 7.99983 17C7.95783 18.634 7.89983 20.74 9.03583 22.01H6.53083C5.79993 22.0096 5.09433 21.7423 4.54654 21.2584C3.99875 20.7745 3.64646 20.1073 3.55583 19.382V19.382ZM18.9998 22H12.9998C12.2042 22 11.4411 21.6839 10.8785 21.1213C10.3159 20.5587 9.99983 19.7957 9.99983 19H13.6998C14.0868 19.186 16.5748 21.111 16.9998 21C17.4158 21.118 19.9298 19.177 20.2998 19H21.9998C21.9998 19.7957 21.6838 20.5587 21.1212 21.1213C20.5585 21.6839 19.7955 22 18.9998 22Z" fill="url(#paint0_linear_544_49)"/>
</g>
<defs>
<linearGradient id="paint0_linear_544_49" x1="-1.91093" y1="-2.56653" x2="28.6675" y2="-0.608403" gradientUnits="userSpaceOnUse">
<stop stop-color="#FF6464"/>
<stop offset="1" stop-color="#FAE741"/>
</linearGradient>
<clipPath id="clip0_544_49">
<rect width="24" height="24" fill="white"/>
</clipPath>
</defs>
</svg>
