<svg width="24" height="24" viewBox="0 0 24 24" fill="none" xmlns="http://www.w3.org/2000/svg">
<g clip-path="url(#clip0_544_71)">
<path d="M22.9421 6.83699L20.7601 4.65399L21.7071 3.70699C21.8026 3.61474 21.8788 3.5044 21.9312 3.38239C21.9836 3.26039 22.0112 3.12917 22.0124 2.99639C22.0135 2.86361 21.9882 2.73193 21.9379 2.60903C21.8876 2.48614 21.8134 2.37449 21.7195 2.28059C21.6256 2.1867 21.514 2.11245 21.3911 2.06217C21.2682 2.01189 21.1365 1.98658 21.0037 1.98774C20.8709 1.98889 20.7397 2.01648 20.6177 2.06889C20.4957 2.1213 20.3853 2.19748 20.2931 2.29299L19.3461 3.23999L17.1631 1.05799C16.475 0.402311 15.561 0.0365601 14.6106 0.0365601C13.6602 0.0365601 12.7462 0.402311 12.0581 1.05799C11.7227 1.39315 11.4566 1.79114 11.275 2.2292C11.0934 2.66726 11 3.1368 11 3.61099C11 4.08518 11.0934 4.55472 11.275 4.99278C11.4566 5.43084 11.7227 5.82882 12.0581 6.16399L14.2401 8.34599L8.3461 14.24L6.1631 12.058C5.47504 11.4023 4.56105 11.0366 3.6106 11.0366C2.66016 11.0366 1.74617 11.4023 1.0581 12.058C0.722662 12.3932 0.456559 12.7911 0.275003 13.2292C0.0934482 13.6673 0 14.1368 0 14.611C0 15.0852 0.0934482 15.5547 0.275003 15.9928C0.456559 16.4308 0.722662 16.8288 1.0581 17.164L3.2401 19.346L2.2931 20.293C2.19759 20.3852 2.12141 20.4956 2.069 20.6176C2.01659 20.7396 1.98901 20.8708 1.98785 21.0036C1.9867 21.1364 2.012 21.268 2.06228 21.3909C2.11256 21.5138 2.18682 21.6255 2.28071 21.7194C2.3746 21.8133 2.48625 21.8875 2.60915 21.9378C2.73205 21.9881 2.86373 22.0134 2.99651 22.0122C3.12928 22.0111 3.2605 21.9835 3.38251 21.9311C3.50451 21.8787 3.61486 21.8025 3.7071 21.707L4.6541 20.76L6.8371 22.942C7.17225 23.2773 7.57017 23.5433 8.00814 23.7247C8.4461 23.9062 8.91553 23.9996 9.3896 23.9996C9.86368 23.9996 10.3331 23.9062 10.7711 23.7247C11.209 23.5433 11.607 23.2773 11.9421 22.942C12.2775 22.6069 12.5436 22.209 12.7251 21.771C12.9067 21.3331 13.0001 20.8636 13.0001 20.3895C13.0001 19.9154 12.9067 19.4459 12.7251 19.0079C12.5436 18.57 12.2775 18.1721 11.9421 17.837L9.7601 15.655L15.6601 9.75999L17.8421 11.942C18.1772 12.2773 18.5752 12.5433 19.0131 12.7247C19.4511 12.9062 19.9205 12.9996 20.3946 12.9996C20.8687 12.9996 21.3381 12.9062 21.7761 12.7247C22.214 12.5433 22.612 12.2773 22.9471 11.942C23.2825 11.6069 23.5486 11.209 23.7301 10.771C23.9117 10.3331 24.0051 9.8636 24.0051 9.38949C24.0051 8.91538 23.9117 8.44592 23.7301 8.00794C23.5486 7.56997 23.2825 7.17207 22.9471 6.83699H22.9421ZM11.0001 20.39C11.0005 20.6015 10.959 20.8109 10.878 21.0062C10.797 21.2016 10.6781 21.3789 10.5281 21.528C10.2216 21.8212 9.81378 21.9849 9.3896 21.9849C8.96543 21.9849 8.55761 21.8212 8.2511 21.528L2.4721 15.749C2.17015 15.447 2.00052 15.0375 2.00052 14.6105C2.00052 14.1835 2.17015 13.7739 2.4721 13.472C2.77405 13.17 3.18358 13.0004 3.6106 13.0004C4.03762 13.0004 4.44715 13.17 4.7491 13.472L10.5281 19.251C10.6782 19.4002 10.7972 19.5777 10.8782 19.7732C10.9592 19.9687 11.0007 20.1784 11.0001 20.39ZM21.5281 10.528C21.2216 10.8212 20.8138 10.9849 20.3896 10.9849C19.9654 10.9849 19.5576 10.8212 19.2511 10.528L13.4721 4.74899C13.3226 4.59948 13.204 4.42198 13.1231 4.22664C13.0422 4.0313 13.0005 3.82193 13.0005 3.61049C13.0005 3.18347 13.1702 2.77394 13.4721 2.47199C13.7741 2.17004 14.1836 2.00041 14.6106 2.00041C15.0376 2.00041 15.4472 2.17004 15.7491 2.47199L21.5281 8.25099C21.6777 8.40043 21.7965 8.5779 21.8774 8.77325C21.9584 8.9686 22.0001 9.17801 22.0001 9.38949C22.0001 9.60097 21.9584 9.81037 21.8774 10.0057C21.7965 10.2011 21.6777 10.3786 21.5281 10.528V10.528Z" fill="url(#paint0_linear_544_71)"/>
</g>
<defs>
<linearGradient id="paint0_linear_544_71" x1="-1.92349" y1="-2.53091" x2="28.6754" y2="-0.567012" gradientUnits="userSpaceOnUse">
<stop stop-color="#ECE078"/>
<stop offset="0.744792" stop-color="#45BE31"/>
<stop offset="1" stop-color="#0AA62C"/>
</linearGradient>
<clipPath id="clip0_544_71">
<rect width="24" height="24" fill="white"/>
</clipPath>
</defs>
</svg>
