<svg width="24" height="24" viewBox="0 0 24 24" fill="none" xmlns="http://www.w3.org/2000/svg">
<g clip-path="url(#clip0_544_36)">
<path d="M17.9939 2.28601C16.7733 1.19555 15.2785 0.458594 13.6703 0.154442C12.062 -0.149711 10.4013 -0.00953966 8.86679 0.55987C7.33228 1.12928 5.9821 2.10637 4.96156 3.38598C3.94101 4.6656 3.28874 6.19929 3.07493 7.82201C2.88291 9.24486 3.03648 10.693 3.52265 12.044C4.00881 13.3949 4.81327 14.6088 5.86793 15.583C6.52013 16.1549 7.04641 16.8561 7.41341 17.6421C7.78042 18.4281 7.98014 19.2818 7.99993 20.149V20.31C8.00099 21.2883 8.39009 22.2263 9.08187 22.9181C9.77365 23.6098 10.7116 23.999 11.6899 24H12.3099C13.2883 23.999 14.2262 23.6098 14.918 22.9181C15.6098 22.2263 15.9989 21.2883 15.9999 20.31V19.761C16.0149 18.9945 16.1953 18.2402 16.5287 17.5498C16.8622 16.8595 17.3408 16.2493 17.9319 15.761C18.8905 14.9215 19.6598 13.8878 20.1887 12.7285C20.7177 11.5692 20.9942 10.3107 21.0001 9.03648C21.0059 7.76223 20.741 6.50128 20.2227 5.33717C19.7045 4.17305 18.9448 3.13235 17.9939 2.28401V2.28601ZM12.3099 22H11.6899C11.2419 21.9995 10.8123 21.8213 10.4955 21.5044C10.1787 21.1876 10.0005 20.7581 9.99993 20.31C9.99993 20.31 9.99293 20.05 9.99193 20H13.9999V20.31C13.9994 20.7581 13.8212 21.1876 13.5044 21.5044C13.1875 21.8213 12.758 21.9995 12.3099 22V22ZM16.6099 14.259C15.4714 15.2465 14.6491 16.5478 14.2459 18H12.9999V10.816C13.5828 10.6099 14.0878 10.2288 14.4458 9.72471C14.8038 9.22064 14.9974 8.61827 14.9999 8.00001C14.9999 7.73479 14.8946 7.48044 14.707 7.2929C14.5195 7.10537 14.2651 7.00001 13.9999 7.00001C13.7347 7.00001 13.4804 7.10537 13.2928 7.2929C13.1053 7.48044 12.9999 7.73479 12.9999 8.00001C12.9999 8.26523 12.8946 8.51958 12.707 8.70712C12.5195 8.89465 12.2651 9.00001 11.9999 9.00001C11.7347 9.00001 11.4804 8.89465 11.2928 8.70712C11.1053 8.51958 10.9999 8.26523 10.9999 8.00001C10.9999 7.73479 10.8946 7.48044 10.707 7.2929C10.5195 7.10537 10.2651 7.00001 9.99993 7.00001C9.73471 7.00001 9.48036 7.10537 9.29282 7.2929C9.10529 7.48044 8.99993 7.73479 8.99993 8.00001C9.00249 8.61827 9.19601 9.22064 9.55402 9.72471C9.91202 10.2288 10.417 10.6099 10.9999 10.816V18H9.67793C9.22692 16.5092 8.38105 15.1682 7.22993 14.119C6.25288 13.2086 5.55665 12.0377 5.2234 10.7445C4.89014 9.45128 4.93377 8.08973 5.34914 6.8205C5.7645 5.55128 6.53427 4.42736 7.5676 3.58137C8.60092 2.73539 9.85468 2.20264 11.1809 2.04601C11.4559 2.01532 11.7323 1.99996 12.0089 2.00001C13.7265 1.9949 15.3846 2.62863 16.6609 3.77801C17.4006 4.43761 17.9917 5.2469 18.3949 6.15224C18.7981 7.05757 19.0043 8.03827 18.9997 9.02933C18.9952 10.0204 18.78 10.9992 18.3685 11.9008C17.9571 12.8024 17.3586 13.6062 16.6129 14.259H16.6099Z" fill="url(#paint0_linear_544_36)"/>
</g>
<defs>
<linearGradient id="paint0_linear_544_36" x1="1.55188" y1="-2.574" x2="24.5447" y2="-1.46891" gradientUnits="userSpaceOnUse">
<stop stop-color="#FFF73A"/>
<stop offset="1" stop-color="#FFB546"/>
</linearGradient>
<clipPath id="clip0_544_36">
<rect width="24" height="24" fill="white"/>
</clipPath>
</defs>
</svg>
