<svg width="24" height="24" viewBox="0 0 24 24" fill="none" xmlns="http://www.w3.org/2000/svg">
<g clip-path="url(#clip0_544_59)">
<path d="M23 22H5C4.20435 22 3.44129 21.6839 2.87868 21.1213C2.31607 20.5587 2 19.7956 2 19V1C2 0.734784 1.89464 0.48043 1.70711 0.292893C1.51957 0.105357 1.26522 0 1 0C0.734784 0 0.48043 0.105357 0.292893 0.292893C0.105357 0.48043 0 0.734784 0 1L0 19C0.00158786 20.3256 0.528882 21.5964 1.46622 22.5338C2.40356 23.4711 3.6744 23.9984 5 24H23C23.2652 24 23.5196 23.8946 23.7071 23.7071C23.8946 23.5196 24 23.2652 24 23C24 22.7348 23.8946 22.4804 23.7071 22.2929C23.5196 22.1054 23.2652 22 23 22Z" fill="url(#paint0_linear_544_59)"/>
<path d="M6 20C6.26522 20 6.51957 19.8946 6.70711 19.7071C6.89464 19.5196 7 19.2652 7 19V12C7 11.7348 6.89464 11.4804 6.70711 11.2929C6.51957 11.1054 6.26522 11 6 11C5.73478 11 5.48043 11.1054 5.29289 11.2929C5.10536 11.4804 5 11.7348 5 12V19C5 19.2652 5.10536 19.5196 5.29289 19.7071C5.48043 19.8946 5.73478 20 6 20Z" fill="url(#paint1_linear_544_59)"/>
<path d="M10 10V19C10 19.2652 10.1054 19.5196 10.2929 19.7071C10.4804 19.8946 10.7348 20 11 20C11.2652 20 11.5196 19.8946 11.7071 19.7071C11.8946 19.5196 12 19.2652 12 19V10C12 9.73478 11.8946 9.48043 11.7071 9.29289C11.5196 9.10536 11.2652 9 11 9C10.7348 9 10.4804 9.10536 10.2929 9.29289C10.1054 9.48043 10 9.73478 10 10Z" fill="url(#paint2_linear_544_59)"/>
<path d="M15 13V19C15 19.2652 15.1054 19.5196 15.2929 19.7071C15.4804 19.8946 15.7348 20 16 20C16.2652 20 16.5196 19.8946 16.7071 19.7071C16.8946 19.5196 17 19.2652 17 19V13C17 12.7348 16.8946 12.4804 16.7071 12.2929C16.5196 12.1054 16.2652 12 16 12C15.7348 12 15.4804 12.1054 15.2929 12.2929C15.1054 12.4804 15 12.7348 15 13Z" fill="url(#paint3_linear_544_59)"/>
<path d="M20 9V19C20 19.2652 20.1054 19.5196 20.2929 19.7071C20.4804 19.8946 20.7348 20 21 20C21.2652 20 21.5196 19.8946 21.7071 19.7071C21.8946 19.5196 22 19.2652 22 19V9C22 8.73478 21.8946 8.48043 21.7071 8.29289C21.5196 8.10536 21.2652 8 21 8C20.7348 8 20.4804 8.10536 20.2929 8.29289C20.1054 8.48043 20 8.73478 20 9Z" fill="url(#paint4_linear_544_59)"/>
<path d="M5.99979 8.99998C6.26498 8.99992 6.51929 8.89453 6.70679 8.70698L10.2928 5.12098C10.4834 4.9394 10.7365 4.83812 10.9998 4.83812C11.263 4.83812 11.5162 4.9394 11.7068 5.12098L13.8788 7.29298C14.4414 7.85539 15.2043 8.17134 15.9998 8.17134C16.7953 8.17134 17.5582 7.85539 18.1208 7.29298L23.7068 1.70698C23.8889 1.51838 23.9897 1.26578 23.9875 1.00358C23.9852 0.741382 23.88 0.490569 23.6946 0.305161C23.5092 0.119753 23.2584 0.0145843 22.9962 0.0123059C22.734 0.0100274 22.4814 0.110822 22.2928 0.29298L16.7068 5.87798C16.5193 6.06545 16.265 6.17077 15.9998 6.17077C15.7346 6.17077 15.4803 6.06545 15.2928 5.87798L13.1208 3.70698C12.5582 3.14457 11.7953 2.82862 10.9998 2.82862C10.2043 2.82862 9.44137 3.14457 8.87879 3.70698L5.29279 7.29298C5.15298 7.43283 5.05777 7.611 5.0192 7.80495C4.98064 7.9989 5.00044 8.19993 5.07611 8.38263C5.15178 8.56533 5.27992 8.7215 5.44433 8.83138C5.60874 8.94127 5.80204 8.99994 5.99979 8.99998V8.99998Z" fill="url(#paint5_linear_544_59)"/>
</g>
<defs>
<linearGradient id="paint0_linear_544_59" x1="4.8777" y1="0.877699" x2="25.5163" y2="6.11174" gradientUnits="userSpaceOnUse">
<stop stop-color="#A5AEFD"/>
<stop offset="0.265625" stop-color="#8F94FB"/>
<stop offset="1" stop-color="#4E54C8"/>
</linearGradient>
<linearGradient id="paint1_linear_544_59" x1="5.40647" y1="11.3291" x2="7.23118" y2="11.432" gradientUnits="userSpaceOnUse">
<stop stop-color="#A5AEFD"/>
<stop offset="0.265625" stop-color="#8F94FB"/>
<stop offset="1" stop-color="#4E54C8"/>
</linearGradient>
<linearGradient id="paint2_linear_544_59" x1="10.4065" y1="9.40228" x2="12.2331" y2="9.4865" gradientUnits="userSpaceOnUse">
<stop stop-color="#A5AEFD"/>
<stop offset="0.265625" stop-color="#8F94FB"/>
<stop offset="1" stop-color="#4E54C8"/>
</linearGradient>
<linearGradient id="paint3_linear_544_59" x1="15.4065" y1="12.2926" x2="17.2296" y2="12.4082" gradientUnits="userSpaceOnUse">
<stop stop-color="#A5AEFD"/>
<stop offset="0.265625" stop-color="#8F94FB"/>
<stop offset="1" stop-color="#4E54C8"/>
</linearGradient>
<linearGradient id="paint4_linear_544_59" x1="20.4065" y1="8.43885" x2="22.2337" y2="8.51608" gradientUnits="userSpaceOnUse">
<stop stop-color="#A5AEFD"/>
<stop offset="0.265625" stop-color="#8F94FB"/>
<stop offset="1" stop-color="#4E54C8"/>
</linearGradient>
<linearGradient id="paint5_linear_544_59" x1="8.85897" y1="0.340956" x2="22.3615" y2="7.57513" gradientUnits="userSpaceOnUse">
<stop stop-color="#A5AEFD"/>
<stop offset="0.265625" stop-color="#8F94FB"/>
<stop offset="1" stop-color="#4E54C8"/>
</linearGradient>
<clipPath id="clip0_544_59">
<rect width="24" height="24" fill="white"/>
</clipPath>
</defs>
</svg>
