<svg width="24" height="24" viewBox="0 0 24 24" fill="none" xmlns="http://www.w3.org/2000/svg">
<g clip-path="url(#clip0_544_47)">
<path d="M18 12C18 12.552 17.552 13 17 13C16.448 13 16 12.552 16 12C16 11.448 16.448 11 17 11C17.552 11 18 11.448 18 12ZM7.00005 5C7.55205 5 8.00005 4.553 8.00005 4C8.00005 2.897 8.89705 2 10 2C11.103 2 12 2.897 12 4C12 4.553 12.448 5 13 5C13.552 5 14 4.553 14 4C14 1.794 12.206 0 10 0C7.79405 0 6.00005 1.794 6.00005 4C6.00005 4.553 6.44805 5 7.00005 5ZM24.0001 13V15C24.0001 16.106 23.252 16.779 22.432 16.954C21.771 18.608 20.5601 20.005 19 20.908V21C19 22.654 17.654 24 16 24C14.696 24 13.584 23.164 13.171 22H10.828C10.415 23.164 9.30305 24 7.99905 24C6.34505 24 4.99905 22.654 4.99905 21V20.921C2.36405 19.402 0.817047 16.544 1.01605 13.47C1.07905 12.492 1.32605 11.563 1.72105 10.714C0.704047 10.233 -0.00195312 9.198 -0.00195312 8C-0.00195312 6.346 1.34405 5 2.99805 5C3.55005 5 3.99805 5.447 3.99805 6C3.99805 6.553 3.55005 7 2.99805 7C2.44605 7 1.99805 7.448 1.99805 8C1.99805 8.491 2.35405 8.9 2.82105 8.984C4.34205 7.161 6.67405 6 9.26405 6H14.627C15.36 4.522 16.7291 3.488 18.5541 3.054C19.1451 2.915 19.7571 3.051 20.2351 3.428C20.7201 3.812 20.9991 4.386 20.9991 5.004V8.719C21.6071 9.41 22.0931 10.2 22.4311 11.046C23.2521 11.221 23.9991 11.894 23.9991 13H24.0001ZM22.0001 13H21.706C21.264 13 20.874 12.709 20.748 12.285C20.474 11.365 19.968 10.509 19.285 9.808C19.102 9.621 19 9.37 19 9.11V5.004C18.025 5.236 16.735 5.834 16.236 7.339C16.095 7.762 15.683 8.053 15.246 8.023C15.178 8.02 9.26605 8.001 9.26605 8.001C5.96305 8.001 3.21605 10.46 3.01305 13.6C2.85305 16.069 4.19405 18.352 6.43005 19.415C6.77905 19.581 7.00005 19.933 7.00005 20.318V21.001C7.00005 21.553 7.44905 22.001 8.00005 22.001C8.55105 22.001 9.00005 21.553 9.00005 21.001C9.00005 20.449 9.44805 20.001 10 20.001H14C14.552 20.001 15 20.448 15 21.001C15 21.554 15.449 22.001 16 22.001C16.551 22.001 17 21.553 17 21.001V20.307C17 19.922 17.221 19.571 17.5691 19.405C19.1111 18.669 20.269 17.324 20.748 15.717C20.874 15.293 21.264 15.002 21.706 15.002H22.0001V13.002V13Z" fill="url(#paint0_linear_544_47)"/>
</g>
<defs>
<linearGradient id="paint0_linear_544_47" x1="-1.92519" y1="-2.57143" x2="28.6702" y2="-0.61104" gradientUnits="userSpaceOnUse">
<stop stop-color="#FD6E6A"/>
<stop offset="1" stop-color="#F4AEE1"/>
</linearGradient>
<clipPath id="clip0_544_47">
<rect width="24" height="24" fill="white"/>
</clipPath>
</defs>
</svg>
