<svg width="24" height="24" viewBox="0 0 24 24" fill="none" xmlns="http://www.w3.org/2000/svg">
<g clip-path="url(#clip0_544_53)">
<path d="M8.16383 8.00003C7.58457 7.99096 7.02644 7.781 6.58483 7.40603C5.66369 6.56125 5.10564 5.39246 5.02783 4.14502C4.78483 1.65202 6.14483 0.181024 7.61383 0.0170243C7.96778 -0.0222192 8.32601 0.0101456 8.66719 0.112192C9.00838 0.214239 9.32555 0.383882 9.59983 0.611024C10.009 0.979858 10.3412 1.42595 10.5774 1.92364C10.8135 2.42134 10.9489 2.96081 10.9758 3.51102C11.1998 5.83502 10.1278 8.00003 8.16383 8.00003ZM7.83583 2.00002C7.25883 2.06402 6.91483 2.88302 7.01883 3.94602C7.0478 4.66016 7.34237 5.33774 7.84483 5.84603C7.94002 5.93953 8.06651 5.9944 8.19983 6.00003C8.55083 5.96103 9.11583 5.05902 8.98283 3.70002C8.64083 1.83402 7.86083 2.00002 7.83583 2.00502V2.00002ZM3.16383 14C2.58457 13.991 2.02644 13.781 1.58483 13.406C0.663688 12.5612 0.10564 11.3925 0.0278268 10.145C-0.215173 7.65203 1.14483 6.18103 2.61383 6.01703C2.96776 5.97824 3.32588 6.01082 3.667 6.11285C4.00812 6.21488 4.32531 6.38428 4.59983 6.61103C5.009 6.97986 5.34122 7.42595 5.57736 7.92364C5.81351 8.42134 5.94893 8.96081 5.97583 9.51102C6.19983 11.835 5.07683 14 3.16383 14ZM2.83583 8.00003C2.25883 8.06403 1.91483 8.88303 2.01883 9.94603C2.0478 10.6602 2.34237 11.3377 2.84483 11.846C2.94095 11.9381 3.06689 11.9928 3.19983 12C3.55083 11.961 4.11583 11.059 3.98283 9.70002C3.71783 7.87202 2.86083 8.00002 2.83583 8.00502V8.00003ZM15.8358 8.00003C14.1278 8.01203 12.8018 5.83402 13.0288 3.50802C13.0557 2.95781 13.1911 2.41834 13.4273 1.92064C13.6634 1.42295 13.9957 0.976858 14.4048 0.608024C14.6788 0.382243 14.9953 0.213628 15.3355 0.112124C15.6758 0.0106202 16.0329 -0.0217156 16.3858 0.0170243C17.8548 0.181024 19.2148 1.65202 18.9718 4.14502C18.8943 5.39281 18.3362 6.562 17.4148 7.40703C16.9731 7.78164 16.415 7.99124 15.8358 8.00003V8.00003ZM15.0198 3.70002C14.8868 5.05502 15.4518 5.95703 15.8028 6.00003C15.9336 5.99488 16.0584 5.9435 16.1548 5.85503C16.6573 5.34674 16.9519 4.66916 16.9808 3.95502C17.1908 1.33402 15.1998 1.50502 15.0198 3.70002ZM20.8358 14C18.9738 14 17.8018 11.834 18.0288 9.50803C18.0557 8.95781 18.1911 8.41834 18.4273 7.92064C18.6634 7.42295 18.9957 6.97686 19.4048 6.60802C19.6784 6.38142 19.9948 6.21208 20.3351 6.11004C20.6754 6.00801 21.0327 5.97535 21.3858 6.01402C22.8548 6.17802 24.2148 7.64902 23.9718 10.142C23.8943 11.3898 23.3362 12.559 22.4148 13.404C21.9735 13.7797 21.4153 13.9904 20.8358 14V14ZM20.0198 9.70002C19.8868 11.055 20.4518 11.957 20.8028 12C20.9332 11.9931 21.0574 11.942 21.1548 11.855C21.6573 11.3467 21.9519 10.6692 21.9808 9.95502C22.0808 8.89202 21.7408 8.07302 21.1638 8.00902C21.1388 8.00002 20.1148 7.91102 20.0198 9.70002ZM15.9998 24C15.145 24.0171 14.3009 23.8081 13.5528 23.394C13.074 23.1418 12.541 23.01 11.9998 23.01C11.4587 23.01 10.9256 23.1418 10.4468 23.394C7.43383 25.083 3.92183 23.227 3.99983 19C3.99983 14.365 8.50683 10 11.9998 10C15.4928 10 19.9998 14.364 19.9998 19C19.9998 21.944 18.3548 24 15.9998 24ZM11.9998 21C12.8545 20.9832 13.6985 21.1919 14.4468 21.605C16.6838 22.823 18.0348 21.172 17.9998 19C17.9998 15.62 14.4788 12 11.9998 12C9.52083 12 5.99983 15.62 5.99983 19C5.96783 21.169 7.30783 22.823 9.55283 21.605C10.3012 21.1919 11.1452 20.9832 11.9998 21Z" fill="url(#paint0_linear_544_53)"/>
</g>
<defs>
<linearGradient id="paint0_linear_544_53" x1="-1.92362" y1="-2.57203" x2="28.6701" y2="-0.612967" gradientUnits="userSpaceOnUse">
<stop stop-color="#FFB774"/>
<stop offset="1" stop-color="#A8390A"/>
</linearGradient>
<clipPath id="clip0_544_53">
<rect width="24" height="24" fill="white"/>
</clipPath>
</defs>
</svg>
