<svg width="24" height="24" viewBox="0 0 24 24" fill="none" xmlns="http://www.w3.org/2000/svg">
<g clip-path="url(#clip0_544_57)">
<path d="M1.33312 7.23798C0.48412 5.52198 -1.19988 1.26898 1.20012 0.149983C1.55694 0.00144576 1.94986 -0.0376473 2.32896 0.0376724C2.70805 0.112992 3.05618 0.299323 3.32912 0.572983L8.28912 5.87298C8.38282 5.96504 8.45747 6.07465 8.5088 6.19556C8.56014 6.31646 8.58716 6.4463 8.58832 6.57764C8.58948 6.70899 8.56476 6.83928 8.51557 6.96108C8.46638 7.08287 8.39368 7.19378 8.30162 7.28748C8.20956 7.38118 8.09995 7.45583 7.97905 7.50717C7.85814 7.5585 7.72831 7.58552 7.59696 7.58669C7.46561 7.58785 7.33532 7.56312 7.21352 7.51393C7.09173 7.46474 6.98082 7.39204 6.88712 7.29998L2.00012 2.07998C2.11912 5.85698 4.34312 8.67998 6.84112 11.519C7.03287 11.7033 7.14355 11.9563 7.1488 12.2222C7.15405 12.4881 7.05345 12.7452 6.86912 12.937C6.68479 13.1287 6.43185 13.2394 6.16592 13.2447C5.89999 13.2499 5.64287 13.1493 5.45112 12.965C3.80963 11.2644 2.42261 9.33546 1.33312 7.23798V7.23798ZM18.0051 16.2C17.8689 16.0507 17.6987 15.9365 17.509 15.8668C17.3193 15.7972 17.1156 15.7743 16.9151 15.8C15.7551 15.9557 14.575 15.8567 13.4571 15.51C13.2859 15.4595 13.1042 15.4564 12.9315 15.5012C12.7587 15.5459 12.6013 15.6367 12.4761 15.764C10.9821 18.02 15.7501 17.877 16.7881 17.844L22.2711 23.683C22.3611 23.7787 22.4691 23.8558 22.5889 23.9098C22.7087 23.9638 22.838 23.9936 22.9694 23.9977C23.1007 24.0017 23.2316 23.9799 23.3545 23.9333C23.4774 23.8868 23.5899 23.8165 23.6856 23.7265C23.7814 23.6365 23.8584 23.5285 23.9124 23.4087C23.9664 23.2889 23.9963 23.1596 24.0003 23.0282C24.0044 22.8969 23.9825 22.766 23.936 22.6431C23.8894 22.5202 23.8191 22.4077 23.7291 22.312L18.0051 16.2ZM15.0001 14C15.6567 14.0009 16.307 13.8723 16.9138 13.6214C17.5206 13.3705 18.0719 13.0023 18.5361 12.538L23.7071 7.36598C23.8001 7.27314 23.8739 7.16289 23.9242 7.04153C23.9746 6.92017 24.0006 6.79008 24.0007 6.65869C24.0008 6.5273 23.975 6.39717 23.9248 6.27574C23.8746 6.15431 23.801 6.04396 23.7081 5.95098C23.6153 5.85801 23.505 5.78423 23.3837 5.73386C23.2623 5.68349 23.1322 5.65752 23.0008 5.65743C22.8694 5.65733 22.7393 5.68312 22.6179 5.73332C22.4964 5.78352 22.3861 5.85714 22.2931 5.94998L17.1221 11.122C16.683 11.5573 16.12 11.8463 15.5103 11.9494C14.9006 12.0525 14.274 11.9647 13.7161 11.698L20.7071 4.70698C20.8026 4.61474 20.8788 4.50439 20.9312 4.38239C20.9836 4.26038 21.0112 4.12916 21.0124 3.99638C21.0135 3.8636 20.9882 3.73192 20.9379 3.60903C20.8877 3.48613 20.8134 3.37448 20.7195 3.28059C20.6256 3.18669 20.514 3.11244 20.3911 3.06216C20.2682 3.01188 20.1365 2.98658 20.0037 2.98773C19.8709 2.98889 19.7397 3.01647 19.6177 3.06888C19.4957 3.12129 19.3854 3.19747 19.2931 3.29298L12.3001 10.284C12.0334 9.72611 11.9456 9.09945 12.0487 8.48976C12.1518 7.88007 12.4408 7.31713 12.8761 6.87798L18.0501 1.70698C18.2323 1.51838 18.3331 1.26578 18.3308 1.00358C18.3285 0.741385 18.2233 0.490572 18.0379 0.305164C17.8525 0.119756 17.6017 0.0145871 17.3395 0.0123086C17.0773 0.0100302 16.8247 0.110825 16.6361 0.292983L11.4641 5.46398C10.6509 6.28 10.1437 7.35136 10.028 8.49761C9.91236 9.64386 10.1953 10.7949 10.8291 11.757L0.29312 22.293C0.110962 22.4816 0.0101672 22.7342 0.0124456 22.9964C0.014724 23.2586 0.119893 23.5094 0.305301 23.6948C0.490709 23.8802 0.741522 23.9854 1.00372 23.9877C1.26592 23.9899 1.51852 23.8891 1.70712 23.707L12.2431 13.171C13.061 13.7116 14.0197 13.9999 15.0001 14V14Z" fill="url(#paint0_linear_544_57)"/>
</g>
<defs>
<linearGradient id="paint0_linear_544_57" x1="-1.9627" y1="-2.57089" x2="28.6774" y2="-0.604565" gradientUnits="userSpaceOnUse">
<stop stop-color="#F6D365"/>
<stop offset="1" stop-color="#FDA085"/>
</linearGradient>
<clipPath id="clip0_544_57">
<rect width="24" height="24" fill="white"/>
</clipPath>
</defs>
</svg>
