<svg width="24" height="24" viewBox="0 0 24 24" fill="none" xmlns="http://www.w3.org/2000/svg">
<g clip-path="url(#clip0_544_75)">
<path d="M10.6891 24C10.2625 23.9998 9.84199 23.8981 9.46246 23.7032C9.08292 23.5084 8.75522 23.226 8.50644 22.8794C8.25767 22.5328 8.09496 22.132 8.03178 21.7101C7.96859 21.2881 8.00675 20.8572 8.14308 20.453L10.0831 15H6.15808L5.07808 16.646C4.80547 17.0625 4.43326 17.4045 3.99516 17.6409C3.55706 17.8773 3.06691 18.0008 2.56908 18V18C2.15788 17.9999 1.75276 17.9006 1.38812 17.7106C1.02347 17.5205 0.710068 17.2452 0.474507 16.9082C0.238946 16.5711 0.0881814 16.1822 0.0350103 15.7745C-0.0181607 15.3667 0.0278316 14.9522 0.169083 14.566L1.10008 12L0.159083 9.43998C0.0174936 9.05446 -0.0290759 8.6405 0.0233211 8.23316C0.0757181 7.82582 0.225537 7.43711 0.460083 7.09998C0.738731 6.74396 1.09914 6.46041 1.51073 6.27337C1.92232 6.08633 2.37296 6.00132 2.82441 6.02556C3.27585 6.0498 3.7148 6.18258 4.10399 6.41261C4.49319 6.64265 4.82116 6.96317 5.06008 7.34698L6.15508 8.99998H10.0831L8.14708 3.56298C8.00849 3.15671 7.96877 2.72325 8.0312 2.29856C8.09364 1.87386 8.25643 1.47018 8.50608 1.12098C8.80347 0.743282 9.19059 0.445943 9.63221 0.25602C10.0738 0.0660976 10.5559 -0.0103802 11.0346 0.0335459C11.5134 0.077472 11.9735 0.240407 12.3732 0.507527C12.7729 0.774646 13.0994 1.13747 13.3231 1.56298L17.5801 8.99998H20.8931C21.6163 8.99089 22.3197 9.23629 22.8804 9.69328C23.441 10.1503 23.8232 10.7898 23.9601 11.5C24.0328 11.9303 24.0108 12.3713 23.8955 12.7923C23.7803 13.2132 23.5745 13.604 23.2927 13.9372C23.0109 14.2705 22.6597 14.5382 22.2638 14.7218C21.8678 14.9053 21.4365 15.0003 21.0001 15H17.5801L13.3131 22.454C13.0544 22.9232 12.6744 23.3143 12.2128 23.5862C11.7511 23.8582 11.2249 24.0011 10.6891 24V24ZM5.61808 13H11.5001C11.6597 13.0014 11.8167 13.0407 11.9582 13.1148C12.0996 13.1888 12.2213 13.2955 12.3134 13.4259C12.4054 13.5564 12.4651 13.7069 12.4875 13.8649C12.5099 14.023 12.4943 14.1841 12.4421 14.335L10.0321 21.108C9.99988 21.2096 9.99216 21.3173 10.0095 21.4225C10.0269 21.5276 10.0689 21.6272 10.1321 21.713C10.2329 21.8129 10.356 21.8876 10.4913 21.9308C10.6265 21.9741 10.77 21.9848 10.9102 21.9619C11.0503 21.9391 11.1831 21.8835 11.2976 21.7995C11.4121 21.7156 11.5051 21.6058 11.5691 21.479L16.1321 13.5C16.22 13.3477 16.3466 13.2212 16.499 13.1335C16.6514 13.0457 16.8242 12.9996 17.0001 13H21.0001C21.1463 13 21.2907 12.9681 21.4232 12.9063C21.5556 12.8445 21.673 12.7544 21.7669 12.6424C21.8608 12.5304 21.929 12.3991 21.9667 12.2579C22.0044 12.1167 22.0107 11.9689 21.9851 11.825C21.9259 11.5828 21.7849 11.3684 21.5859 11.2181C21.387 11.0678 21.1423 10.9908 20.8931 11H17.0001C16.8242 11.0003 16.6514 10.9543 16.499 10.8665C16.3466 10.7787 16.22 10.6523 16.1321 10.5L11.5771 2.53898C11.5163 2.40805 11.4248 2.29378 11.3103 2.20593C11.1958 2.11807 11.0617 2.05925 10.9195 2.03449C10.7773 2.00973 10.6312 2.01976 10.4938 2.06373C10.3563 2.1077 10.2315 2.1843 10.1301 2.28698C10.0661 2.37554 10.0243 2.47814 10.0081 2.58618C9.99193 2.69422 10.0019 2.80457 10.0371 2.90798L12.4371 9.66498C12.4892 9.81545 12.5048 9.97613 12.4827 10.1338C12.4606 10.2915 12.4013 10.4417 12.3099 10.572C12.2184 10.7023 12.0973 10.8091 11.9565 10.8835C11.8157 10.9579 11.6593 10.9978 11.5001 11H5.61808C5.45288 11 5.29025 10.9591 5.14471 10.8809C4.99918 10.8027 4.87528 10.6897 4.78408 10.552L3.39108 8.45198C3.16308 8.03098 2.35708 7.81498 2.10108 8.24198C2.0488 8.31493 2.01548 8.39974 2.00413 8.48877C1.99278 8.5778 2.00376 8.66825 2.03608 8.75198L3.10808 11.658C3.18995 11.8807 3.18995 12.1253 3.10808 12.348L2.04208 15.258C2.01236 15.3417 2.00314 15.4313 2.01518 15.5194C2.02722 15.6074 2.06019 15.6912 2.1113 15.7639C2.16242 15.8366 2.23021 15.8959 2.30899 15.937C2.38777 15.9781 2.47524 15.9997 2.56408 16V16C2.73016 16.0001 2.89364 15.9588 3.03977 15.8799C3.1859 15.801 3.31007 15.6869 3.40108 15.548L4.77708 13.448C4.86893 13.3092 4.99394 13.1956 5.14079 13.1174C5.28765 13.0391 5.4517 12.9988 5.61808 13V13Z" fill="url(#paint0_linear_544_75)"/>
</g>
<defs>
<linearGradient id="paint0_linear_544_75" x1="-1.9206" y1="-2.54764" x2="28.6715" y2="-0.5859" gradientUnits="userSpaceOnUse">
<stop stop-color="#64D0FF"/>
<stop offset="1" stop-color="#4174FA"/>
</linearGradient>
<clipPath id="clip0_544_75">
<rect width="24" height="24" fill="white"/>
</clipPath>
</defs>
</svg>
