<svg width="25" height="24" viewBox="0 0 25 24" fill="none" xmlns="http://www.w3.org/2000/svg">
<g clip-path="url(#clip0_570_26)">
<path d="M0.99835 6.99994C0.997589 6.86833 1.02281 6.73787 1.07258 6.61603C1.12234 6.4942 1.19567 6.38338 1.28835 6.28994C1.38131 6.19621 1.49191 6.12182 1.61377 6.07105C1.73563 6.02028 1.86634 5.99414 1.99835 5.99414C2.13036 5.99414 2.26107 6.02028 2.38293 6.07105C2.50479 6.12182 2.61539 6.19621 2.70835 6.28994L10.8784 14.4599C11.4409 15.0217 12.2033 15.3373 12.9984 15.3373C13.7934 15.3373 14.5558 15.0217 15.1184 14.4599L23.2883 6.28994C23.4767 6.10164 23.732 5.99585 23.9983 5.99585C24.2647 5.99585 24.52 6.10164 24.7083 6.28994C24.8967 6.47824 25.0024 6.73364 25.0024 6.99994C25.0024 7.26624 24.8967 7.52164 24.7083 7.70994L16.5384 15.8799C16.0739 16.3456 15.5221 16.715 14.9147 16.9671C14.3072 17.2191 13.656 17.3489 12.9984 17.3489C12.3407 17.3489 11.6895 17.2191 11.082 16.9671C10.4746 16.715 9.92281 16.3456 9.45835 15.8799L1.28835 7.70994C1.19567 7.6165 1.12234 7.50568 1.07258 7.38385C1.02281 7.26201 0.997589 7.13155 0.99835 6.99994Z" fill="#363F5F"/>
</g>
<defs>
<clipPath id="clip0_570_26">
<rect width="24" height="24" fill="white" transform="translate(24.9983) rotate(90)"/>
</clipPath>
</defs>
</svg>
