<svg width="28" height="28" viewBox="0 0 28 28" fill="none" xmlns="http://www.w3.org/2000/svg">
<g clip-path="url(#clip0_420_137)">
<path d="M16.6605 16.9268C16.1855 18.8345 12.9748 17.8033 11.9336 17.5444L12.7766 14.1632C13.8178 14.4228 17.1569 14.9377 16.6605 16.9268Z" fill="url(#paint0_linear_420_137)"/>
<path d="M17.1357 11.9781C16.7028 13.7126 14.0298 12.8311 13.1626 12.615L13.9271 9.54834C14.7951 9.76443 17.5871 10.1681 17.1357 11.9781Z" fill="url(#paint1_linear_420_137)"/>
<path d="M17.3848 0.418967C9.88651 -1.45098 2.28977 3.11405 0.421251 10.6145C-1.4494 18.1135 3.11492 25.7103 10.6125 27.5809C18.113 29.4516 25.7097 24.8865 27.5789 17.3868C29.4496 9.88635 24.8853 2.28891 17.3848 0.418967ZM11.1189 9.4449C11.1381 9.11827 11.0254 8.70677 10.4028 8.55129C10.4271 8.5356 9.28744 8.27387 9.28744 8.27387L9.6968 6.63357L11.8149 7.16274L11.8135 7.1713C12.1316 7.24975 12.4596 7.32535 12.7948 7.40166L13.4246 4.87916L14.9593 5.26213L14.3424 7.73542C14.7539 7.82956 15.169 7.92441 15.5726 8.02497L16.1853 5.56808L17.7214 5.95106L17.0924 8.47427C19.0315 9.14251 20.45 10.1438 20.1712 12.0066C19.9694 13.3702 19.2134 14.0306 18.21 14.2617C19.5878 14.9791 20.2889 16.0796 19.6206 17.9873C18.7919 20.3565 16.8221 20.5562 14.2026 20.0605L13.5672 22.608L12.031 22.225L12.6586 19.7125C12.2607 19.6133 11.8534 19.5085 11.4348 19.3944L10.8051 21.919L9.27032 21.5361L9.90647 18.9836C9.54774 18.8916 9.18331 18.7946 8.81104 18.7012L6.812 18.2027L7.57439 16.4447C7.57439 16.4447 8.7062 16.7457 8.69122 16.7236C9.12626 16.8305 9.31882 16.5474 9.39513 16.3584L11.1189 9.4449Z" fill="url(#paint2_linear_420_137)"/>
</g>
<defs>
<linearGradient id="paint0_linear_420_137" x1="11.5508" y1="13.7462" x2="17.6274" y2="14.2241" gradientUnits="userSpaceOnUse">
<stop stop-color="#FFE664"/>
<stop offset="1" stop-color="#FA8341"/>
</linearGradient>
<linearGradient id="paint1_linear_420_137" x1="12.8403" y1="9.17522" x2="17.9603" y2="9.55409" gradientUnits="userSpaceOnUse">
<stop stop-color="#FFE664"/>
<stop offset="1" stop-color="#FA8341"/>
</linearGradient>
<linearGradient id="paint2_linear_420_137" x1="-2.24134" y1="-3.00002" x2="33.4456" y2="-0.713901" gradientUnits="userSpaceOnUse">
<stop stop-color="#FFE664"/>
<stop offset="1" stop-color="#FA8341"/>
</linearGradient>
<clipPath id="clip0_420_137">
<rect width="28" height="28" fill="white"/>
</clipPath>
</defs>
</svg>
