<svg width="38" height="38" viewBox="0 0 38 38" fill="none" xmlns="http://www.w3.org/2000/svg">
<g clip-path="url(#clip0_102_1229)">
<path d="M29.9874 6.31311H7.89141C5.79925 6.31562 3.79349 7.14784 2.31411 8.62722C0.834725 10.1066 0.00250609 12.1124 0 14.2045L0 23.6742C0.00250609 25.7664 0.834725 27.7721 2.31411 29.2515C3.79349 30.7309 5.79925 31.5631 7.89141 31.5656H29.9874C32.0795 31.5631 34.0853 30.7309 35.5647 29.2515C37.0441 27.7721 37.8763 25.7664 37.8788 23.6742V14.2045C37.8763 12.1124 37.0441 10.1066 35.5647 8.62722C34.0853 7.14784 32.0795 6.31562 29.9874 6.31311V6.31311ZM6.31313 26.8308C6.00098 26.8308 5.69583 26.7382 5.43628 26.5648C5.17674 26.3914 4.97444 26.1449 4.85499 25.8565C4.73553 25.5681 4.70428 25.2508 4.76517 24.9446C4.82607 24.6384 4.97639 24.3572 5.19712 24.1365C5.41784 23.9158 5.69907 23.7654 6.00522 23.7045C6.31138 23.6436 6.62872 23.6749 6.91711 23.7944C7.20551 23.9138 7.452 24.1161 7.62543 24.3757C7.79885 24.6352 7.89141 24.9403 7.89141 25.2525C7.89141 25.6711 7.72513 26.0725 7.42915 26.3685C7.13316 26.6645 6.73172 26.8308 6.31313 26.8308ZM6.31313 14.2045C6.00098 14.2045 5.69583 14.112 5.43628 13.9385C5.17674 13.7651 4.97444 13.5186 4.85499 13.2302C4.73553 12.9418 4.70428 12.6245 4.76517 12.3183C4.82607 12.0122 4.97639 11.731 5.19712 11.5102C5.41784 11.2895 5.69907 11.1392 6.00522 11.0783C6.31138 11.0174 6.62872 11.0486 6.91711 11.1681C7.20551 11.2876 7.452 11.4898 7.62543 11.7494C7.79885 12.0089 7.89141 12.3141 7.89141 12.6262C7.89141 13.0448 7.72513 13.4463 7.42915 13.7423C7.13316 14.0382 6.73172 14.2045 6.31313 14.2045ZM18.9394 25.2525C17.6908 25.2525 16.4702 24.8822 15.432 24.1885C14.3938 23.4949 13.5846 22.5089 13.1068 21.3553C12.629 20.2017 12.504 18.9324 12.7476 17.7077C12.9912 16.4831 13.5924 15.3582 14.4753 14.4753C15.3582 13.5924 16.4831 12.9911 17.7078 12.7475C18.9324 12.504 20.2018 12.629 21.3553 13.1068C22.5089 13.5846 23.4949 14.3938 24.1886 15.432C24.8823 16.4702 25.2525 17.6908 25.2525 18.9394C25.2525 20.6137 24.5874 22.2195 23.4035 23.4034C22.2195 24.5874 20.6137 25.2525 18.9394 25.2525ZM31.5657 26.8308C31.2535 26.8308 30.9484 26.7382 30.6888 26.5648C30.4293 26.3914 30.227 26.1449 30.1075 25.8565C29.9881 25.5681 29.9568 25.2508 30.0177 24.9446C30.0786 24.6384 30.2289 24.3572 30.4496 24.1365C30.6704 23.9158 30.9516 23.7654 31.2577 23.7045C31.5639 23.6436 31.8812 23.6749 32.1696 23.7944C32.458 23.9138 32.7045 24.1161 32.878 24.3757C33.0514 24.6352 33.1439 24.9403 33.1439 25.2525C33.1439 25.6711 32.9777 26.0725 32.6817 26.3685C32.3857 26.6645 31.9842 26.8308 31.5657 26.8308ZM31.5657 14.2045C31.2535 14.2045 30.9484 14.112 30.6888 13.9385C30.4293 13.7651 30.227 13.5186 30.1075 13.2302C29.9881 12.9418 29.9568 12.6245 30.0177 12.3183C30.0786 12.0122 30.2289 11.731 30.4496 11.5102C30.6704 11.2895 30.9516 11.1392 31.2577 11.0783C31.5639 11.0174 31.8812 11.0486 32.1696 11.1681C32.458 11.2876 32.7045 11.4898 32.878 11.7494C33.0514 12.0089 33.1439 12.3141 33.1439 12.6262C33.1439 13.0448 32.9777 13.4463 32.6817 13.7423C32.3857 14.0382 31.9842 14.2045 31.5657 14.2045ZM22.096 18.9394C22.096 19.5637 21.9108 20.174 21.564 20.6931C21.2171 21.2122 20.7241 21.6167 20.1474 21.8557C19.5706 22.0946 18.9359 22.1571 18.3236 22.0353C17.7113 21.9135 17.1488 21.6129 16.7074 21.1714C16.2659 20.7299 15.9653 20.1675 15.8435 19.5552C15.7217 18.9429 15.7842 18.3082 16.0231 17.7314C16.262 17.1546 16.6666 16.6616 17.1857 16.3148C17.7048 15.9679 18.3151 15.7828 18.9394 15.7828C19.7766 15.7828 20.5795 16.1154 21.1714 16.7073C21.7634 17.2993 22.096 18.1022 22.096 18.9394Z" fill="white" fill-opacity="0.5"/>
</g>
<defs>
<clipPath id="clip0_102_1229">
<rect width="37.8788" height="37.8788" fill="white"/>
</clipPath>
</defs>
</svg>
