<svg xmlns="http://www.w3.org/2000/svg" width="698" height="629" fill="none" viewBox="0 0 698 629">
  <g class="cat">
    <g class="bg">
      <g class="Vector">
        <path fill="#F0B33B" d="M624.46 606.801c0 11.724-123.47 21.227-275.779 21.227-152.308 0-275.778-9.503-275.778-21.227s123.47-21.227 275.778-21.227c152.309 0 275.779 9.503 275.779 21.227Z"/>
        <path fill="#FFDE66" d="M630.03 110.384c-2.391 1.848-5.493 1.973-8.13.572-3.881-2.063-7.001-5.265-9.914-8.493-3.313-3.668-3.374-8.815 0-12.49 3.046-3.317 9.49-3.537 12.488 0 1.664 1.961 3.557 3.9 4.916 6.083a36.664 36.664 0 0 1 3.263 6.633c1.014 2.724-.472 6.033-2.623 7.695Zm-35.316-29.512c-1.798-1.755-3.51-3.573-5.298-5.343-.04-.038-.715-.665-.843-.81-.666-.512-1.379-.964-1.971-1.565a8.567 8.567 0 0 1-1.906-2.997l-.02-.033c-1.218-2.114-.607-5.38 1.712-6.53-.868.721-.638.555.689-.497a4.858 4.858 0 0 1 1.887-.681c1.431-.363 2.805-.36 4.245-.034 1.765.403 3.525 1.232 5.114 2.111 3.872 2.144 6.476 5.616 7.563 9.877 1.646 6.467-6.362 11.199-11.172 6.502ZM566.681 61.96c-9.825.761-17.397-6.359-23.548-13.125-6.476-7.121-12.027-15.077-16.667-23.499-4.961-9.011 7.875-16.174 13.603-7.952 4.928 7.07 10.656 13.339 17.049 19.106 6.078 5.48 12.607 10.01 15.086 18.219 1.149 3.8-1.943 6.975-5.523 7.251Zm79.216 419.54c-9.639 13.175-19.001 24.445-32.813 33.389-3.614 2.341-8.117-2.291-5.878-5.878 8.8-14.102 20.286-23.207 34.227-31.975 2.636-1.657 6.429 1.78 4.464 4.464Zm51.504-144.772c-.116 2.794-1.489 4.974-3.399 6.912-2.232 2.267-5.423 1.371-7.123-.917.648.871-1.295-1.749-1.345-1.73-.507-.855-.851-1.855-1.098-2.814-.281-1.094-.293-2.191-.368-3.301a32.825 32.825 0 0 0-.086-.945c-.017-.1-.037-.215-.061-.383-.605-3.571.902-6.764 4.5-7.927 3.324-1.077 7.016 1.258 7.928 4.5.59 2.104 1.145 4.426 1.052 6.605Zm-11.867 4.265c.014.023.022.05.037.073-.035-.055-.04-.072-.037-.073Zm6.951-45.552c-.58 5.408-7.443 6.428-9.377 1.268-4.28-11.41-5.422-23.626-8.082-35.491-1.146-5.114 6.571-8.973 8.871-3.739 5.32 12.104 10.024 24.564 8.588 37.962ZM42.87 443.682a7.165 7.165 0 0 1-.817 3.428c-.821 1.943-2.064 3.496-3.926 4.579-3.345 1.95-7.574 1.594-10.613-.754-1.933-1.493-3.655-3.459-4.237-5.919a21.192 21.192 0 0 1-.538-4.067c-.1-2.679 1.175-5.17 2.936-7.09 1.807-1.968 4.496-2.818 7.089-2.936 2.498-.11 5.35 1.198 7.088 2.936 1.71 1.71 2.616 3.992 2.849 6.364.133.711.254 1.426.27 2.127.008.429-.039.881-.1 1.332ZM13.112 425.34c-5.394-2.403-8.767-9.568-10.562-14.922-1.683-5.024-2.398-10.45-2.546-15.732-.316-11.195 17.55-13.815 19.692-2.666.714 3.716 1.786 7.132 3.485 10.492 2.363 4.67 5.042 8.528 5.534 13.875.798 8.659-9.2 11.806-15.603 8.953ZM167.845 32.945c-.713 1.012-1.403 2.204-2.259 3.085-1.469 1.509-3.387 2.142-5.352 2.67-3.618.976-7.101-1.205-8.222-4.666-.52-1.608-.164-3.718.674-5.15.769-1.317 2.434-2.8 3.993-3.072 2.114-.37 4.047-.698 6.173-.14 1.251.33 2.446 1.183 3.565 1.83 1.74 1.005 2.663 3.691 1.428 5.443Zm-29.617 9.784c-.042 6.92-4.983 10.51-10.981 12.613-4.338 1.52-8.787 1.401-13.248.633-4.354-.75-6.124-7.44-2.704-10.24 3.151-2.577 5.535-4.698 8.491-6.848.25-.182 1.361-.941 1.142-.773 1.715-1.255 2.571-2.071 4.753-2.758 2.369-.744 4.548-.62 6.939.009 3.224.847 5.628 4.048 5.608 7.364Zm-83.32 95.721c-1.706-10.55-18.794-10.096-20.868 0-.718 3.499-3.887 7.303-5.584 10.559a229.011 229.011 0 0 1-7.034 12.528c-4.743 7.847-9.819 15.354-13.467 23.803-2.6 6.015-2.674 12.61 2.264 17.548 4.14 4.14 12.543 6.123 17.547 2.265 10.202-7.868 19.042-17.089 24.395-28.995 2.776-6.173 4.704-11.822 5.462-18.556.817-7.252-1.6-12.264-2.715-19.152ZM233.321 19.13C269.483-.076 315.615-3.388 355.767 4.631c52.76 10.534 78.947 9.528 131.707 20.062 31.097 6.21 58.358 46.169 87.024 59.732 34.443 16.298 41.482 31.037 61.085 63.712 6.294 10.492 29.853 42.957 31.267 55.11 2.405 20.65-2.593 32.179-.125 52.821 2.821 23.584 5.188 38.108 8.043 61.687 4.137 34.158-16.228 51.918-14.579 86.285.701 14.692-8.975 34.069-10.496 48.7-1.138 10.954-43.582 38.959-49.911 47.97-28.031 39.901-26.36 48.974-70.81 69.029-18.907 8.53-25.447 25.901-45.929 29.173-17.833 2.852-36.047 1.553-54.033-.083-35.637-3.242-57.461 7.582-92.77 1.78-29.966-4.922-68.571-1.588-98.897-.018-14.154.736-38.04-4.419-51.906-7.346-12.249-2.584-45.413-16.69-56.159-23.112-23.085-13.793-46.662-38.184-56.752-63.111-3.323-8.208-4.283-44.254-28.31-78.303-21.994-31.169-17.867-30.781-25.755-98.221-4.431-37.887 4.35-86.484 26.33-117.661 14.638-20.762 20.158-40.056 23.16-65.281 1.123-9.43-.72-19.063.779-28.44 4.392-27.46 33.989-42.126 59.843-52.363 25.705-10.176 50.773-22.133 77.112-30.529 19.854-6.329 12.719-9.17 27.636-17.094Z"/>
      </g>
    </g>
    <g class="cat-all">
      <g class="Vector">
        <path fill="#2B232D" d="m84.585 546.245-6.465 1.551c.25 1.047 6.385 25.788 28.269 37.882 14.356 7.931 31.942 8.466 52.27 1.589 60.679-20.538 135.292-3.725 136.038-3.552l1.496-6.478c-3.122-.722-77.165-17.42-139.665 3.732-18.458 6.245-34.227 5.884-46.872-1.081-19.305-10.634-25.014-33.413-25.07-33.643Z"/>
        <path fill="#2B232D" d="M78.12 547.796s.006-.762-.825-1.385c1.697.346 1.731.691 1.731.691l.665-2.072.693 1.637s1.406-2.349 2.763-2.749c-.173.623 0 2.077 0 2.077l2.345-1.836s-.957.499-.907 2.086c.05 1.586-.675 2.381-1.108 2.521-.435.138-3.066.484-3.239.449-.173-.034-2.118-1.419-2.118-1.419Z"/>
        <path fill="#140716" d="M160.382 585.533c-20.326 6.882-37.91 6.349-52.27-1.596-17.534-9.689-24.963-27.523-27.34-34.752a38.968 38.968 0 0 1-.581-1.895c-.2-.681-.3-1.113-.333-1.23 0 0 0-.349-.249-.748l-.582 1.795s-.016-.099-.266-.232c-.216-.133-.648-.298-1.462-.466.797.615.814 1.33.814 1.38.266 1.047 6.399 25.796 28.271 37.893 14.359 7.928 31.943 8.46 52.27 1.579 60.679-20.526 135.303-3.723 136.051-3.54l.465-2.011c-10.071-2.111-78.446-15.255-134.788 3.823Z"/>
        <path fill="#2B232D" d="m501.615 586.977-.082-6.648c44.098-.527 75.686-12.915 86.664-33.983 6.486-12.45 4.961-27.286-4.184-40.705-21.489-31.53-73.109-3.751-73.63-3.466l-3.194-5.83c2.337-1.278 57.477-30.908 82.317 5.553 10.569 15.506 12.241 32.828 4.587 47.518-7.138 13.702-28.644 36.797-92.478 37.561Z"/>
        <path fill="#140716" d="M590.465 555.221c-9.87 13.562-33.371 31.096-88.85 31.761l-.083-6.648c.666 0 1.329-.015 1.979-.034l.05 4.189c52.119-.632 76.018-16.138 86.904-29.268Zm-80.074-53.051-3.207-5.834c.265-.133 1.165-.615 2.592-1.313l2.543 4.654c.532-.283 52.154-28.055 73.627 3.473 9.157 13.413 10.67 28.254 4.188 40.703a41.055 41.055 0 0 1-5.019 7.447 39.45 39.45 0 0 0 3.076-4.954c6.497-12.449 4.968-27.29-4.173-40.703-21.49-31.528-73.11-3.756-73.627-3.473Z"/>
        <path fill="#61376B" d="M433.5 424.802c-3.787 16.903-26.06 22.371-90.845 21.39-64.766.981-87.055-4.487-90.828-21.39-3.754-21.755 5.418-45.871 19.844-72.429 4.39-8.078 7.795-16.404 10.439-24.332a185.324 185.324 0 0 0 4.92-17.7c.779-3.324 1.378-6.432 1.895-9.241.33-1.961.631-3.756.88-5.385v-.017c.067-.365.115-.714.148-1.08.133-.814.235-1.595.334-2.31.082-.731.167-1.396.233-1.995.349-2.941.447-4.62.447-4.62l7.479-.249 3.341-.133 33.971-1.213c0-.316-.015-.499-.015-.499l6.912.266 6.914-.266s-.016.183-.016.499l43.031 1.547h.016l1.744.048s.016.367.083.997v.034c.035.315.066.731.101 1.213.083.914.2 2.111.366 3.573.066.582.133 1.213.214 1.895.233 2.027.534 4.404.914 7.08v.016c.133.881.266 1.812.416 2.759.301 1.978.65 4.089 1.047 6.333a316.421 316.421 0 0 0 3.641 17.8c.067.199.117.432.165.648.282 1.196.583 2.41.897 3.64a280.008 280.008 0 0 0 6.068 20.692c8.475 25.179 28.853 51.555 25.244 72.429ZM248.075 200.87c-2.865-7.15-3.708-15.331-4.984-27.874-1.885-18.543-2.804-33.919-3.652-43.406-1.088-12.181 5.588-9.783 10.363-7.833 8.541 3.488 20.629 11.68 26.77 16.106 9.574 6.899 24.592 26.478 24.197 35.55-9.507 11.962-26.66 24.203-52.694 27.457Z"/>
        <path fill="#61376B" d="M300.767 173.417c-.465.573-.939 1.16-1.434 1.737-3.176-9.946-15.26-24.984-23.411-30.855-6.136-4.43-18.227-12.615-26.766-16.104-3.504-1.424-8.004-3.101-9.75.888-.867-11.601 5.683-9.251 10.398-7.323 8.539 3.489 20.63 11.674 26.766 16.103 9.575 6.903 24.593 26.483 24.197 35.554Z"/>
        <path fill="#A62E3A" d="M256.293 199.491c-2.091-5.511-1.353-12.683-2.534-22.251-1.749-14.145-2.773-25.855-3.589-33.089-1.048-9.288 3.437-7.284 6.652-5.674 5.75 2.881 13.975 9.432 18.162 12.962 6.527 5.502 19.68 21.749 19.661 28.635-5.973 8.833-21.198 17.645-38.352 19.417Z"/>
        <path fill="#A62E3A" d="M294.527 178.903c-4.406-6.793-10.848-14.137-14.826-17.488-4.185-3.53-12.412-10.078-18.166-12.958-3.208-1.613-7.695-3.617-6.648 5.665.813 7.238 1.835 18.954 3.587 33.097.553 4.45.688 8.375.885 11.865a51.74 51.74 0 0 1-3.068.404c-2.084-5.508-1.346-12.679-2.531-22.252-1.752-14.144-2.772-25.849-3.595-33.086-1.048-9.284 3.439-7.288 6.657-5.677 5.753 2.88 13.972 9.438 18.167 12.968 6.174 5.211 18.297 20.059 19.538 27.462Z"/>
        <path fill="#3D243E" d="M392.149 161.727c3.692 14.923 49.436 41.485 55.836 35.999 4.634-3.971 5.21-27.802 5.378-33.87.514-18.595-1.854-31.575-.204-38.56 1.65-6.986-3.75-13.695-15.566-6.397-11.819 7.301-32.519 22.945-45.444 42.828Z"/>
        <path fill="#3D243E" d="M392.149 161.727c3.692 14.923 49.436 41.485 55.836 35.999 4.634-3.971 5.21-27.802 5.378-33.87.514-18.595-1.854-31.575-.204-38.56 1.65-6.986-3.75-13.695-15.566-6.397-11.819 7.301-32.519 22.945-45.444 42.828Z"/>
        <path fill="#61376B" d="M392.149 161.727c3.692 14.923 49.436 41.485 55.836 35.999 4.634-3.971 5.21-27.802 5.378-33.87.514-18.595-1.854-31.575-.204-38.56 1.65-6.986-3.75-13.695-15.566-6.397-11.819 7.301-32.519 22.945-45.444 42.828Z"/>
        <path fill="#61376B" d="M447.983 197.722c-.68.585-1.792.799-3.251.705 2.922-7.823 3.347-25.579 3.5-30.701.51-18.593-1.855-31.57-.211-38.552 1.657-6.99-3.748-13.696-15.568-6.405a153.56 153.56 0 0 0-9.113 6.135c5.33-4.177 10.285-7.558 14.25-10.006 11.819-7.301 17.224-.585 15.57 6.396-1.655 6.99.72 19.97.199 38.561-.166 6.068-.739 29.895-5.376 33.867Z"/>
        <path fill="#A62E3A" d="M397.03 169.847c2.201 8.892 32.323 28.334 36.137 25.065 2.761-2.367 8.239-21.897 9.59-35.562 1.089-11.033-1.105-18.816-.123-22.979.984-4.162-2.234-8.161-9.276-3.811-7.042 4.351-28.624 25.438-36.328 37.287Z"/>
        <path fill="#A62E3A" d="M442.758 159.352c-1.351 13.667-6.825 33.192-9.591 35.557-.213.191-.52.304-.901.348 2.4-7.508 4.871-18.382 5.716-26.953 1.09-11.032-1.099-18.814-.123-22.977.987-4.164-2.234-8.164-9.273-3.81-5.745 3.544-21.212 18.271-30.883 30.006-.309-.592-.538-1.155-.67-1.677 7.697-11.852 29.28-32.939 36.33-37.282 7.039-4.354 10.26-.352 9.272 3.81-.985 4.163 1.214 11.946.123 22.978Z"/>
        <path fill="#61376B" d="M462.57 240.487c.415 11.9-2.842 22.404-8.558 31.445-3.606 5.734-8.212 10.886-13.464 15.438a76.546 76.546 0 0 1-3.141 2.578 65.638 65.638 0 0 1-3.257 2.443c-.832.582-1.677 1.18-2.543 1.745a87.061 87.061 0 0 1-2.61 1.662 98.557 98.557 0 0 1-8.426 4.687c-.148.067-.316.15-.482.216-.316.15-.648.283-1.014.432h-.016c-.231.083-.466.183-.713.266-.218.083-.434.15-.667.233-.681.232-1.429.465-2.242.696-.533.151-1.099.301-1.697.451-.432.116-.897.232-1.363.349-.282.066-.598.133-.897.216 0 0-.017-.017-.033 0-.815.182-1.679.382-2.577.565a165.01 165.01 0 0 1-3.324.648c-1.479.299-3.024.565-4.636.831h-.015c-.482.083-.983.15-1.481.233-.865.133-1.745.266-2.643.398-.066.017-.133.017-.199.034a.759.759 0 0 0-.181.033h-.052c-.748.116-1.529.216-2.31.332-.931.133-1.878.25-2.824.383l-.349.049c-.035 0-.085.017-.118.017-1.396.166-2.809.349-4.253.515-.831.1-1.662.2-2.511.299-.798.084-1.612.167-2.427.25l-1.894.199c-1.23.117-2.477.25-3.723.366-1.079.1-2.144.183-3.241.282-.53.05-1.079.1-1.629.133-1.629.133-3.272.266-4.934.383-1.116.083-2.229.166-3.343.232-1.512.1-3.023.2-4.552.281-.681.035-1.379.068-2.063.118-.598.017-1.196.05-1.809.083-.999.05-1.997.083-3.01.133-.815.033-1.612.067-2.443.1-.998.033-1.995.066-2.992.083-.698.033-1.396.05-2.111.067l-2.593.049c-14.874.266-29.051-.282-39.838-2.044-.548-.083-1.08-.183-1.628-.266a47.854 47.854 0 0 1-1.546-.216c-1.33-.184-2.659-.349-3.989-.515-.05 0-.1 0-.133-.017-.199-.033-.399-.05-.598-.083l-2.593-.299h-.017c-.914-.116-1.828-.216-2.742-.332-.881-.1-1.762-.216-2.659-.333-.798-.116-1.579-.216-2.358-.332l-.301-.05c-.881-.133-1.762-.266-2.643-.432a48.708 48.708 0 0 1-2.642-.482c-.848-.183-1.679-.366-2.527-.565-.049-.017-.116-.017-.166-.033a54.286 54.286 0 0 1-2.194-.582 2.289 2.289 0 0 1-.315-.083 56.131 56.131 0 0 1-15.158-6.914 54.495 54.495 0 0 1-2.26-1.546 68.753 68.753 0 0 1-2.126-1.629c-.018-.016-.051-.033-.068-.049a34.578 34.578 0 0 1-2.425-2.028 9.046 9.046 0 0 1-.45-.416c-3.108-2.775-5.934-5.916-8.51-9.357-1.562-2.094-2.792-4.387-3.723-6.814-4.055-10.421-2.925-23.334-1.761-33.805.548-5.069 1.313-10.072 2.061-15.107 1.479-9.756 4.489-19.28 9.273-27.756a64.025 64.025 0 0 1 7.38-10.603h.016a50.6 50.6 0 0 1 3.524-3.757 57.257 57.257 0 0 1 10.057-7.894c5.25-3.258 11.1-6.216 17.432-8.792.815-.332 1.629-.665 2.46-.981h.017a137.035 137.035 0 0 1 5.717-2.094c1.213-.415 2.46-.831 3.723-1.213 0 0 .016-.017.016 0 9.474-2.992 19.664-5.219 30.216-6.631h.016a196.41 196.41 0 0 1 27.924-1.712c4.485.05 8.989.133 13.477.332 8.675.382 17.301 1.164 25.646 2.842h.015c3.243.665 6.465 1.463 9.606 2.443h.019c.862.25 1.728.532 2.574.815 8.543 2.908 16.587 7.113 23.85 13.246a77.124 77.124 0 0 1 5.401 5.102 70.74 70.74 0 0 1 1.513 1.629c.035.017.05.066.083.083.183.199.349.399.515.615.216.233.432.482.632.731.533.599 1.03 1.214 1.545 1.862v.016h.017c.018.017.033.034.033.05a51.797 51.797 0 0 1 1.612 2.094c.283.383.549.748.831 1.147.017.017.035.033.05.05.083.116.185.249.266.366.334.465.632.947.966 1.429.314.449.63.931.929 1.413.182.266.365.548.532.831.149.232.299.465.467.714.164.283.33.565.496.865.401.664.798 1.312 1.18 1.994v.017c.283.498.551.98.817 1.462a155.434 155.434 0 0 1 4.169 8.077 125.444 125.444 0 0 1 2.695 6.067c.415.997.796 1.977 1.18 2.958.38.964.729 1.945 1.062 2.892.332.964.648 1.928.947 2.859.366 1.163.698 2.326 1.014 3.473.316 1.147.615 2.277.864 3.407a84.454 84.454 0 0 1 1.232 6.549c.066.465.133.914.181 1.396v.016c.066.449.116.931.149 1.396.019.117.034.25.05.383.017.133.035.266.05.398 0 .2.017.383.033.566.019.199.034.398.05.581.067.898.116 1.779.15 2.643Z"/>
        <path fill="#1D111E" d="m326.7 235.217-.457-4.971c-.159-2.643-1.896-2.917-2.843-.195l-.286 1.233c-.665 3.632-1.965 4.637-5.764 3.928l-69.881-10.318c-2.938-.612-2.938 4.783-.726 5.074l74.641 10.328c2.994.415 5.336-1.175 5.316-5.079Z"/>
        <path fill="#FABD3C" d="M323.76 240.608c-3.124 52.21-81.61 44.319-75.679-10.471l75.679 10.471Z"/>
        <path fill="#FABD3C" d="M323.488 243.649c-5.844 48.069-78.894 40.452-75.618-11.035 2.973 43.158 64.521 49.791 75.618 11.035Z"/>
        <path fill="#1D111E" d="M313.13 238.765c-2.251 37.602-58.78 31.922-54.507-7.542l54.507 7.542Z"/>
        <path fill="#fff" d="M268.241 241.107c-10.044 3.591-14.21 10.838-9.849 11.856 4.361 1.019 11.313-6.531 12.859-8.01 3.148-3.01 2.302-5.746-3.01-3.846Zm2.564 10.693c-6.865 2.457-9.716 7.411-6.732 8.107 2.981.697 7.733-4.465 8.79-5.476 2.152-2.059 1.574-3.929-2.058-2.631Z"/>
        <path fill="#1D111E" d="m438.009 229.44-74.616 10.324c-4.675.597-6.473-.923-6.23-5.955.049-1.022.375-4.075.375-4.075.175-3.045 2.44-1.767 2.806-.191.683 5.464 4.022 5.579 7.447 5.074l69.816-10.308c3.731-.479 3.962 4.748.402 5.131Z"/>
        <path fill="#FABD3C" d="M360.136 240.214c3.126 52.21 81.611 44.321 75.679-10.47l-75.679 10.47Z"/>
        <path fill="#FABD3C" d="M361.027 247.037c13.065 36.131 72.706 28.603 75.039-14.18 2.556 49.518-65.95 57.846-75.039 14.18Z"/>
        <path fill="#1D111E" d="M370.766 238.372c2.251 37.603 58.78 31.92 54.507-7.542l-54.507 7.542Z"/>
        <path fill="#fff" d="M415.655 240.714c10.044 3.592 14.21 10.838 9.849 11.857-4.361 1.019-11.313-6.532-12.86-8.011-3.147-3.01-2.301-5.746 3.011-3.846Zm-2.564 10.694c6.867 2.454 9.716 7.409 6.735 8.105-2.982.696-7.737-4.466-8.792-5.476-2.153-2.058-1.576-3.928 2.057-2.629Z"/>
        <path fill="#A62E3A" d="M349.263 254.166c-.909-2.216-14.82-2.216-16.248.583-1.112 2.179 4.617 9.829 8.116 9.816 2.689-.01 9.324-7.496 8.132-10.399Z"/>
        <path fill="#A62E3A" d="M341.137 264.564c-2.77.01-6.939-4.777-8.002-7.86 1.753 2.392 4.299 4.636 6.197 4.626 2.159-.012 6.846-4.83 8.013-8.227 1.024.264 1.733.618 1.916 1.065 1.197 2.9-5.436 10.386-8.124 10.396Z"/>
        <path fill="#A62E3A" d="M342.456 253.691c-2.375-.706-6.046-.206-8.095 1.233-.418.294-.276 1.137.291 1.152 1.239.033 2.404-.445 3.618-.68 1.323-.252 2.652-.294 3.99-.389.648-.046.863-1.118.196-1.316Z"/>
        <path fill="url(#a)" d="M310.623 282.384c0 10.61-12.536 19.213-28 19.213-15.463 0-27.998-8.603-27.998-19.213 0-10.612 12.535-19.214 27.998-19.214 15.464 0 28 8.602 28 19.214Z"/>
        <path fill="url(#b)" d="M434.342 279.185c0 10.612-12.536 19.212-27.998 19.212-15.465 0-28-8.6-28-19.212s12.535-19.213 28-19.213c15.462 0 27.998 8.601 27.998 19.213Z"/>
        <path fill="#3D243E" d="M319.768 231.553c-6.538.065-13.178-2.076-19.553-3.434-6.145-1.31-12.331-2.917-18.568-3.696-.868-.108-.978 1.24-.2 1.479 6.554 2.014 13.456 3.143 20.155 4.577 3.211.688 6.421 1.375 9.632 2.061 2.805.602 5.928 1.594 8.77.748.941-.281.781-1.745-.236-1.735Zm116.907-10.282c-12.009.354-24.095 2.847-35.97 4.545-6.087.869-12.173 1.74-18.259 2.611-3.269.467-19.416 4.247-19.273-1.649.025-1.003-1.643-1.281-1.798-.242-.858 5.813 6.736 5.548 10.491 5.26 7.018-.537 14.019-1.851 20.984-2.847 14.559-2.082 29.147-4.683 43.825-5.714 1.248-.088 1.277-2.003 0-1.964Z"/>
        <path fill="#61376B" d="M323.394 161.559c5.262-7.536 18.48-18.38 22.095-15.555.972.911-3.645 5.117-4.278 8.166 4.916-3.521 16.198-11.581 16.093-8.226.105 1.692-2.3 4.912-3.45 7.368 2.637-2.465 14.958-9.675 15.456-6.128a26.807 26.807 0 0 1-.769 10.63c-9 1.12-17.998 2.241-26.998 3.363l-18.149.382Zm139.176 78.928c.415 11.9-2.842 22.404-8.558 31.445-3.606 5.734-8.212 10.886-13.464 15.438a76.546 76.546 0 0 1-3.141 2.578 78.448 78.448 0 0 1-3.273 2.426c-.831.599-1.68 1.18-2.527 1.762a87.061 87.061 0 0 1-2.61 1.662 102.992 102.992 0 0 1-8.427 4.67c-.148.084-.315.15-.481.233-.316.15-.648.283-1.014.432h-.016c-.231.083-.466.183-.713.266-.218.083-.434.15-.667.233-.681.232-1.429.465-2.242.696-.533.151-1.099.301-1.697.451-.432.116-.897.232-1.363.349-.282.066-.598.133-.897.216 0 0-.017-.017-.033 0-.815.182-1.679.382-2.577.565a165.01 165.01 0 0 1-3.324.648c-1.927.366-3.972.715-6.132 1.064-.865.133-1.745.266-2.643.398-.066.017-.133.017-.199.034-.067.015-.134.015-.2.015 0 0-.016.018-.033.018-.748.116-1.529.216-2.31.332-.931.133-1.878.25-2.824.383l-.349.049h-.119l.001.017c-1.396.166-2.809.349-4.253.515-.831.1-1.662.2-2.511.299-.798.084-1.612.167-2.427.25l-1.894.199c-1.23.117-2.477.25-3.723.366-1.079.1-2.144.183-3.241.282-.53.05-1.079.1-1.629.133-1.629.133-3.272.266-4.934.383-1.116.083-2.229.166-3.343.232-1.512.1-3.023.2-4.552.281-.681.035-1.379.068-2.063.118-.598.017-1.196.05-1.809.083-.999.05-1.997.083-3.01.133-.815.033-1.612.067-2.443.1-.998.033-1.995.066-2.992.083-.698.033-1.396.05-2.111.067l-2.593.049c-14.874.266-29.051-.282-39.838-2.044-1.063-.166-2.11-.332-3.174-.482-1.33-.184-2.659-.349-3.989-.515-.05 0-.1 0-.133-.017-1.064-.116-2.127-.249-3.191-.382h-.017c-.914-.116-1.828-.216-2.742-.332-.881-.1-1.762-.216-2.659-.333-.798-.116-1.579-.216-2.358-.332l-.301-.05c-.881-.133-1.762-.266-2.643-.432a48.708 48.708 0 0 1-2.642-.482c-.848-.183-1.679-.366-2.527-.565-.049-.017-.116-.017-.166-.033a54.286 54.286 0 0 1-2.194-.582 2.289 2.289 0 0 1-.315-.083 56.131 56.131 0 0 1-15.158-6.914 54.495 54.495 0 0 1-2.26-1.546 42.277 42.277 0 0 1-2.195-1.662c.017.017.051.017.069.033 2.757 1.513 7.51 3.042 13.759 4.438h.033c4.074.931 8.792 1.795 14.011 2.576 1.729.266 3.49.515 5.318.765h.017c2.726.365 5.551.698 8.476 1.013l.615.05v.017c2.31.233 4.687.465 7.097.665 27.126 2.327 60.282 2.343 87.803-2.743l1.298-.249c2.475-.465 4.885-.98 7.245-1.546a62.905 62.905 0 0 0 2.56-.631c.482-.116.98-.249 1.462-.382 7.697-2.028 14.709-4.571 20.709-7.712 4.038-2.094 7.63-4.454 10.653-7.113h.018a58.604 58.604 0 0 0 7.312-7.695c19.431-24.648 11.933-58.154 5.303-76.785v-.016c-.317-.865-.632-1.696-.932-2.493-2.477-6.565-4.637-10.82-4.936-11.402a51.797 51.797 0 0 1 1.612 2.094c.283.383.549.748.831 1.147.017.017.035.033.05.05.083.116.185.249.266.366.334.465.632.947.966 1.429.314.449.63.931.929 1.413.182.266.365.548.532.831.149.232.299.465.467.714.164.283.33.565.496.865.401.664.798 1.312 1.18 1.994v.017c.283.498.551.98.817 1.462a155.434 155.434 0 0 1 4.169 8.077 125.444 125.444 0 0 1 2.695 6.067c.415.997.796 1.977 1.18 2.958a82.697 82.697 0 0 1 1.993 5.751 75.728 75.728 0 0 1 1.03 3.473c.316 1.147.615 2.277.864 3.407a84.454 84.454 0 0 1 1.232 6.549c.066.465.133.914.181 1.396v.016c.066.449.116.931.149 1.396.019.117.034.25.05.383.017.133.034.266.034.398.015.2.033.383.049.566.019.199.034.398.05.581.067.898.116 1.779.15 2.643Z"/>
        <path fill="#61376B" d="M396.372 306.068a70.17 70.17 0 0 0-5.168-5.85 60.06 60.06 0 0 0-1.481-1.461 70.003 70.003 0 0 0-6.299-5.436c-7.828-6.131-16.969-10.851-26.64-12.881-.251 1.066-.615 1.897-1.132 2.061-1.097.334-2.725-1.313-4.005-2.873-6.016-.65-12.164-.2-18.282 1.643-.798 1.247-1.695 2.261-2.526 2.179-.383-.035-.732-.415-1.064-.949-1.645.632-3.274 1.415-4.903 2.246-3.49 1.776-6.914 3.955-10.271 6.581a56.266 56.266 0 0 0-1.961 1.596c-5.347 4.524-10.157 9.639-14.785 14.886-4.564 5.171-9.234 10.328-13.33 15.879-.039.055-.136.144-.152.213.698-2.99 4.452-13.747 4.916-16.275-.05 0 1.628-.611 1.595-.626 1.064.133-1.063-.118 0 0a126.321 126.321 0 0 1 3.507-4.522c.25-.3.499-.614.748-.915a112.084 112.084 0 0 1 2.593-3.008c.432-.482.847-.947 1.279-1.411a103.962 103.962 0 0 1 3.773-3.856 88.668 88.668 0 0 1 7.014-6.232c.299-.251.6-.499.897-.733 5.202-4.07 10.62-7.245 16.138-9.49-2.144-1.878-2.019-3.362-2.019-3.362l35.06-1.691c.066.964-.181 1.878-.615 2.744 6.847 1.594 13.429 4.37 19.495 7.976 6.7 3.924 12.764 8.859 17.9 14.26.199.185.382.384.567.582.415.434.831.88 1.228 1.33a77.982 77.982 0 0 1 4.304 5.235 16.531 16.531 0 0 1 8.693-.565c-.815.184-1.677.384-2.575.565-1.047.216-2.16.434-3.324.65-1.481.299-3.026.565-4.653.831-.482.083-.983.149-1.481.231-.863.134-1.745.267-2.643.4-.066.015-.133.015-.199.032-.05 0-.115.016-.199.016Z"/>
        <path fill="#5E2600" d="M537.481 610.841H150.489c-12.558 0-22.736-10.18-22.736-22.738h432.464c0 12.558-10.18 22.738-22.736 22.738Z"/>
        <path fill="#5E2600" d="M547.648 364.175v200.067c0 17.956-14.556 32.51-32.512 32.51H172.821c-17.948 0-32.496-14.547-32.496-32.494V364.175c0-17.946 14.548-32.495 32.496-32.495h342.332c17.946 0 32.495 14.549 32.495 32.495Z"/>
        <path fill="#FFC33B" d="M511.878 588.104H176.09c-12.42 0-22.49-10.07-22.49-22.491V362.815c0-12.421 10.07-22.491 22.49-22.491h335.788c12.423 0 22.491 10.07 22.491 22.491v202.798c0 12.421-10.068 22.491-22.491 22.491Z"/>
        <path fill="#FFD47D" d="M534.368 356.037V565.62c0 7.38-3.557 13.911-9.025 18.031a22.447 22.447 0 0 0 4.438-13.445v-209.58c0-8.682-7.037-15.719-15.719-15.719H171.504c-5.036 0-9.69 1.662-13.446 4.452 4.122-5.483 10.653-9.039 18.033-9.039h342.558c8.682 0 15.719 7.037 15.719 15.717Z"/>
        <path fill="#E17022" d="M551.886 588.112a5637.587 5637.587 0 0 1-103.36 1.944c-17.218.235-34.453.266-51.671.416l-51.672.116-51.688-.133c-17.218-.133-34.453-.183-51.672-.415a5646.53 5646.53 0 0 1-103.359-1.928h413.422Z"/>
        <path fill="#E4640A" d="M473.809 364.901H208.747c-7.327 0-13.252 5.94-13.252 13.266V555.69c0 7.328 5.925 13.251 13.252 13.251h265.062c7.309 0 13.251-5.923 13.251-13.251V378.167c0-7.326-5.942-13.266-13.251-13.266Z"/>
        <path fill="#000" d="M216.996 381.078a3.426 3.426 0 1 1-6.851.003 3.426 3.426 0 0 1 6.851-.003Zm16.175 0a3.426 3.426 0 1 1-6.853.001 3.426 3.426 0 0 1 6.853-.001Zm16.175 0a3.426 3.426 0 1 1-6.852.002 3.426 3.426 0 0 1 6.852-.002Z"/>
        <path fill="#fff" d="M492.473 372.755v177.523c0 7.328-5.94 13.249-13.251 13.249H214.159a13.236 13.236 0 0 1-13.249-13.249V372.755c0-7.326 5.923-13.266 13.249-13.266h265.063c7.311 0 13.251 5.94 13.251 13.266Z"/>
        <path fill="#E4640A" d="M492.473 372.755v19.088H200.91v-19.088c0-7.326 5.923-13.266 13.249-13.266h265.063c7.311 0 13.251 5.94 13.251 13.266Z"/>
        <path fill="#fff" d="M222.409 375.665a3.425 3.425 0 1 1-6.851 0 3.426 3.426 0 0 1 6.851 0Zm16.175 0a3.426 3.426 0 1 1-6.852.002 3.426 3.426 0 0 1 6.852-.002Zm16.175 0a3.426 3.426 0 1 1-6.852.002 3.426 3.426 0 0 1 6.852-.002Z"/>
      </g>
    </g>
    <g class="fallen">
      <g class="fio">
        <path fill="#61376B" d="M275.827 331.68h7.164c-1.696 3.158-3.241 6.267-4.687 9.274a467.565 467.565 0 0 0-1.479 3.125 931.11 931.11 0 0 0-5.518 12.001c-4.621 10.236-8.909 20.474-12.432 30.896-1.03 3.074-2.028 6.165-2.925 9.289a9.64 9.64 0 0 0-.133 1.298c-.017.115-.017.216-.017.315v.747c0 .1.017.2.017.3.017.199.05.382.066.548.017.067.034.15.05.216.033.168.067.316.117.449 0 .051.016.083.033.134.183.482.382.73.482.831h-.017a.838.838 0 0 0-.133-.101c-.449-.314-1.462-1.047-1.778-1.361-.033-.035-.067-.035-.116-.052l1.229 3.341c-1.229-.432-1.612-1.728-1.728-2.842-.083.266-.166.6-.249 1.065-.266-.999-.549-1.53-.781-1.795l.349 4.089c-1.247-.949-1.097-2.975-.831-4.323-.2.035-.333.199-.333.199s-.997.733-1.363.699l-1.163 2.908c-.067-1.145.449-2.426.98-3.439-.099-.6-.398-1.497-.864-1.697-.764 1.247-2.061 2.842-3.706 2.909l2.676-2.626c-1.346.6-1.862.216-1.862.216 1.43-.548 2.776-3.174 2.776-3.174h.017c5.218-18.415 13.096-35.931 21.406-53.715 1.463-3.124 3.025-6.382 4.753-9.724Zm154.882 7.945-.432.283a2 2 0 0 1-2.759-.649l-3.191-5.102-7.762 4.853 3.175 5.102a1.98 1.98 0 0 1-.63 2.759l-.434.283a1.995 1.995 0 0 1-2.757-.648l-3.193-5.103-4.886 3.047a3.508 3.508 0 0 1-4.835-1.117l-7.03-11.237-.268-.415h32.592l-.133.084 3.193 5.101a2 2 0 0 1-.65 2.759Z"/>
        <path fill="#2B232D" d="M402.812 299.166c-15.91-21.171-46.263-38.782-75.31-27.42-5.739 2.245-11.391 5.529-16.803 9.763-19.379 15.155-31.353 37.395-39.622 55.077-8.315 17.785-16.186 35.297-21.411 53.715l-.02.01s-1.348 2.618-2.776 3.173c0 0 .635.475 2.38-.475.952-.557 1.428 1.506 1.428 2.061 0 .555 1.501-.555 1.501-.555s.799-1.111 1.592 1.824c.239-1.349.477-1.904.874-1.505.396.395 1.983 1.505 1.983 1.505s-1.27-.834-.683-4.894c5.099-17.755 12.77-34.824 20.881-52.172 7.969-17.041 19.464-38.439 37.782-52.765 4.926-3.854 10.042-6.833 15.208-8.85 25.96-10.162 53.408 6.006 67.922 25.32a102.581 102.581 0 0 1 4.968 7.257l5.383-3.358a108.389 108.389 0 0 0-5.277-7.711Z"/>
        <path fill="#140716" d="m408.089 306.88-5.384 3.36a105.506 105.506 0 0 0-4.966-7.266c-14.517-19.316-41.965-35.478-67.919-25.312-5.175 2.009-10.279 4.993-15.217 8.842-18.312 14.323-29.803 35.731-37.781 52.775-8.102 17.336-15.774 34.405-20.878 52.16-.502 3.474.349 4.589.613 4.855-.209-.155-.837-.6-1.324-.977a15.475 15.475 0 0 1-.043-1.395c.043-2.607.684-5.119 1.396-7.615a209.63 209.63 0 0 1 2.077-6.555 265.313 265.313 0 0 1 4.757-12.97 379.331 379.331 0 0 1 5.383-12.859 661.604 661.604 0 0 1 5.802-12.846l2.217-4.77c7.978-17.042 19.469-38.437 37.781-52.76 4.938-3.862 10.042-6.832 15.217-8.855 25.954-10.155 53.402 6.01 67.919 25.327a100.985 100.985 0 0 1 4.966 7.252l4.031-2.51c.46.698.906 1.408 1.353 2.119Z"/>
        <path fill="#fff" d="M357.325 270.365s-.069 6.835-1.674 7.326c-2.001.608-5.867-5.457-5.867-5.457l7.541-1.869Zm-29.567 1.418s1.409 6.688 3.079 6.854c2.081.205 4.682-6.502 4.682-6.502l-7.761-.352Z"/>
        <path fill="#61376B" d="M323.653 267.86s5.802 12.748 18.126 2.856c6.57 7.5 18.553 2.572 18.094-3.747"/>
        <path fill="#fff" d="m419.108 342.068-.431.267a2.005 2.005 0 0 1-2.767-.64l-5.486-8.782a.982.982 0 0 1 .312-1.348l2.176-1.361a.98.98 0 0 1 1.349.313l5.487 8.783a2.013 2.013 0 0 1-.64 2.768Z"/>
        <path fill="#61376B" d="M402.189 331.68h-6.547l-3.641-5.833c-4.72-7.578-2.709-17.451 4.437-22.587.301 1.978.65 4.088 1.047 6.332a317.068 317.068 0 0 0 3.64 17.8c.067.2.118.434.166.65.283 1.195.584 2.41.898 3.638Z"/>
        <path fill="#fff" d="m430.71 334.819-.43.269a2.007 2.007 0 0 1-2.766-.639l-4.941-7.91a2.01 2.01 0 0 1 .64-2.767l.429-.269a2.009 2.009 0 0 1 2.767.639l4.941 7.91a2.008 2.008 0 0 1-.64 2.767Z"/>
        <path fill="#6BB1A2" d="m430.961 325.198-23.629 14.758a2.915 2.915 0 0 1-4.02-.931l-9.416-15.072c-4.929-7.893-2.526-18.286 5.365-23.215 7.891-4.93 18.286-2.526 23.215 5.365l9.415 15.074a2.92 2.92 0 0 1-.93 4.021Z"/>
        <path fill="#583929" d="M401.52 299.583c-6.226 5.298-7.765 14.512-3.294 21.671l10.953 17.539-1.952 1.218a2.8 2.8 0 0 1-3.857-.891l-9.427-15.091c-4.925-7.888-2.53-18.42 5.372-23.324.719-.447 1.445-.835 2.205-1.122Z"/>
      </g>
    </g>
    <g class="smoke-02">
      <g class="Vector">
        <path fill="#61376B" d="M589.993 176.513c-1.245-6.404-10.336-21.563-16.022-24.757-5.685-3.195-23.592-6.097-26.902-9.098-7.902-7.167-12.357-21.668-1.699-22.096 9.984-.403 18.249-9.329 18.626-12.969.379-3.64 3.558-12.67-16.927-29.32 5.743 13.3 7.021 22.06 3.377 30.51-3.647 8.448-28.773 11.009-24.207 18.998 2.085 3.648.402 21.051 3.418 23.975 8.746 8.468 26.893 13.449 26.838 16.987-.054 3.538-4.56 19.462-10.879 19.695-6.321.231-10.921-4.129-11.559-7.725-.638-3.595.761-9.233 6.944-10.549-5.181-7.418-20.736-2.51-22.044 1.512-1.308 4.022-.255 20.559 6.652 26.405 6.904 5.846 14.571 3.983 23.575 4.868 8.872.87 13.276 6.925 21.161 2.768 7.884-4.158 21.347-20.455 19.648-29.204Z"/>
        <path fill="#84529C" d="M589.993 176.513c-1.245-6.404-10.336-21.563-16.022-24.757a14.563 14.563 0 0 0-1.211-.6c.264 1.485 1.025 2.913 1.984 4.106 1.375 1.709 3.1 3.107 4.491 4.8 3.5 4.257 4.605 10.168 3.671 15.6-.93 5.428-3.738 10.404-7.283 14.62-3.184 3.786-7.57 7.253-12.503 6.896 5.343-7.329 7.082-17.163 4.577-25.881-1.688 4.651-3.395 9.338-5.976 13.559-2.58 4.22-6.13 7.996-10.645 10.017-7.878 3.525-17.794.834-23.563-5.588-4.831-5.38-6.789-12.912-6.049-20.133-1.305.801-2.232 1.68-2.507 2.524-1.308 4.022-.255 20.559 6.652 26.405 6.904 5.846 14.571 3.983 23.575 4.868 8.872.87 13.276 6.925 21.161 2.768 7.884-4.158 21.347-20.455 19.648-29.204Z"/>
        <path fill="#84529C" d="M529.658 151.755c3.931 3.806 9.753 6.902 14.975 9.485-2.091-1.7-4.142-3.452-6.11-5.297-2.588-2.425-5.16-5.141-6.046-8.576-1.091-4.233.588-8.787-.361-13.055-.41-1.84-1.293-3.542-1.805-5.357-.513-1.814-.608-3.9.462-5.454 1.428-2.079 4.27-2.438 6.661-3.239a15.057 15.057 0 0 0 7.947-6.308c.086-.141.151-.301.232-.449-8.253 5.063-22.962 8-19.375 14.275 2.085 3.648.403 21.051 3.42 23.975Z"/>
      </g>
    </g>
    <g class="smoke-01">
      <g class="Vector">
        <path fill="#61376B" d="M85.867 304.356c1.111-5.656 9.232-19.05 14.311-21.872 5.079-2.822 16.753-6.506 19.711-9.157 7.059-6.331 11.069-16.903 1.548-17.283-8.92-.356-12.01-9.359-12.347-12.574-.338-3.215-2.872-15.418 15.121-25.903-5.131 11.75-6.273 19.49-3.015 26.954 3.256 7.464 25.703 9.726 21.624 16.784-1.865 3.221-.359 18.597-3.055 21.179-5.248 5.026-14.286 8.661-19.638 11.453-2.616 1.366-2.397 7.253-2.38 8.279.048 3.126 2.119 12.47 7.763 12.674 5.646.204 9.756-3.645 10.326-6.824.57-3.176-.679-8.156-6.204-9.317 4.627-6.554 18.525-2.219 19.693 1.334 1.167 3.552.228 18.163-5.942 23.328-6.169 5.162-13.018 3.518-21.062 4.3-7.925.769-11.858 6.117-18.902 2.444-7.044-3.673-19.072-18.071-17.552-25.799Z"/>
        <path fill="#84529C" d="M85.867 304.356c1.111-5.656 9.232-19.05 14.311-21.872.319-.178.683-.354 1.082-.53-.236 1.315-.916 2.573-1.773 3.628-1.225 1.509-2.768 2.744-4.01 4.242-3.127 3.759-4.114 8.983-3.28 13.779.833 4.799 3.34 9.193 6.507 12.917 2.844 3.346 6.761 6.409 11.169 6.092-4.774-6.474-6.328-15.163-4.091-22.861 1.511 4.107 3.035 8.245 5.34 11.976 2.306 3.728 5.477 7.064 9.51 8.849 7.039 3.116 15.896.738 21.048-4.936 4.316-4.752 6.066-11.408 5.406-17.786 1.165.707 1.993 1.481 2.239 2.229 1.167 3.552.228 18.163-5.942 23.328-6.169 5.162-13.018 3.518-21.062 4.3-7.925.769-11.858 6.117-18.902 2.444-7.044-3.673-19.072-18.071-17.552-25.799Z"/>
        <path fill="#84529C" d="M139.765 282.484c-3.51 3.363-8.712 6.098-13.376 8.38 1.868-1.503 3.7-3.05 5.456-4.679 2.311-2.144 4.611-4.544 5.4-7.577.974-3.741-.523-7.763.324-11.532.366-1.628 1.155-3.13 1.614-4.734.457-1.604.542-3.447-.414-4.82-1.276-1.836-3.814-2.152-5.95-2.862-2.923-.969-5.481-2.976-7.1-5.571-.076-.123-.134-.264-.206-.395 7.371 4.472 20.511 7.065 17.307 12.611-1.863 3.221-.357 18.597-3.055 21.179Z"/>
      </g>
    </g>
    <g class="error">
      <path fill="#E4640A" d="M287.528 462.613c-.431 0-.818-.15-1.163-.452-.301-.301-.452-.689-.452-1.162v-7.298h-20.086a1.72 1.72 0 0 1-1.162-.452c-.301-.302-.452-.689-.452-1.163v-6.135c0-.388.064-.732.194-1.033.172-.345.344-.668.516-.969l18.794-25.446c.56-.732 1.356-1.098 2.39-1.098h9.364c.474 0 .862.151 1.163.452.344.301.517.689.517 1.162v25.059h5.683c.517 0 .926.172 1.227.517.301.301.452.667.452 1.098v6.393c0 .474-.172.861-.517 1.163a1.494 1.494 0 0 1-1.097.452h-5.748v7.298c0 .473-.173.861-.517 1.162-.301.302-.689.452-1.163.452h-7.943Zm-12.207-18.083h10.85v-15.242l-10.85 15.242Zm53 18.729c-3.1 0-5.791-.43-8.073-1.291-2.282-.905-4.176-2.132-5.683-3.682-1.464-1.55-2.583-3.358-3.358-5.425-.775-2.066-1.227-4.284-1.357-6.652a523.787 523.787 0 0 1-.129-3.939v-4.521c.043-1.55.086-2.928.129-4.134.13-2.368.582-4.564 1.357-6.587.818-2.067 1.98-3.854 3.487-5.361 1.55-1.55 3.445-2.755 5.684-3.616 2.281-.861 4.929-1.292 7.943-1.292 3.057 0 5.705.431 7.944 1.292s4.112 2.066 5.619 3.616c1.55 1.507 2.734 3.294 3.552 5.361.818 2.023 1.27 4.219 1.356 6.587.086 1.206.129 2.584.129 4.134a77.439 77.439 0 0 1 0 4.521c0 1.463-.043 2.777-.129 3.939-.086 2.368-.538 4.586-1.356 6.652a15.493 15.493 0 0 1-3.423 5.425c-1.464 1.55-3.337 2.777-5.619 3.682-2.239.861-4.93 1.291-8.073 1.291Zm0-9.364c2.239 0 3.854-.711 4.844-2.132 1.033-1.464 1.572-3.423 1.615-5.877.086-1.248.129-2.562.129-3.939a66.256 66.256 0 0 0 0-4.134 51.89 51.89 0 0 0-.129-3.81c-.043-2.368-.582-4.284-1.615-5.748-.99-1.464-2.605-2.217-4.844-2.261-2.239.044-3.853.797-4.843 2.261-.991 1.464-1.529 3.38-1.615 5.748a664.654 664.654 0 0 0-.129 3.81v4.134c.043 1.377.086 2.691.129 3.939.086 2.454.646 4.413 1.679 5.877 1.033 1.421 2.627 2.132 4.779 2.132Zm47.126 8.718c-.43 0-.818-.15-1.162-.452-.302-.301-.452-.689-.452-1.162v-7.298h-20.086a1.72 1.72 0 0 1-1.162-.452c-.302-.302-.452-.689-.452-1.163v-6.135a2.6 2.6 0 0 1 .193-1.033c.173-.345.345-.668.517-.969l18.794-25.446c.56-.732 1.356-1.098 2.389-1.098h9.365c.474 0 .861.151 1.163.452.344.301.516.689.516 1.162v25.059h5.684c.516 0 .925.172 1.227.517.301.301.452.667.452 1.098v6.393c0 .474-.172.861-.517 1.163a1.495 1.495 0 0 1-1.098.452h-5.748v7.298c0 .473-.172.861-.516 1.162-.302.302-.689.452-1.163.452h-7.944Zm-12.206-18.083h10.85v-15.242l-10.85 15.242Zm-96.274 76.895c-.304 0-.539-.083-.705-.248a1.048 1.048 0 0 1-.249-.706v-27.084c0-.304.083-.539.249-.705.166-.194.401-.29.705-.29h17.13c.304 0 .539.096.705.29.166.166.249.401.249.705v1.576c0 .304-.083.539-.249.705-.166.166-.401.249-.705.249h-14.102v9.084h13.189c.305 0 .54.096.705.29.166.166.249.401.249.705v1.535c0 .276-.083.511-.249.705-.165.166-.4.249-.705.249h-13.189v9.415h14.434c.304 0 .539.083.705.249.166.166.249.401.249.705v1.617c0 .277-.083.512-.249.706-.166.165-.401.248-.705.248h-17.462Zm25.153 0c-.304 0-.539-.083-.705-.248a1.048 1.048 0 0 1-.249-.706v-27.084c0-.304.083-.539.249-.705.166-.194.401-.29.705-.29h10.121c3.124 0 5.599.732 7.424 2.198 1.825 1.465 2.737 3.636 2.737 6.512 0 2.129-.539 3.871-1.617 5.226-1.051 1.327-2.489 2.253-4.314 2.779l6.388 11.033c.083.166.124.318.124.456 0 .221-.097.415-.29.581a.8.8 0 0 1-.581.248h-1.991c-.47 0-.816-.124-1.037-.373a6.956 6.956 0 0 1-.58-.746l-6.015-10.536h-7.258v10.701a.964.964 0 0 1-.29.706c-.166.165-.401.248-.705.248h-2.116Zm3.111-15.18h6.844c2.074 0 3.622-.429 4.645-1.286 1.023-.885 1.535-2.184 1.535-3.899 0-1.686-.512-2.972-1.535-3.857-.995-.885-2.544-1.327-4.645-1.327h-6.844v10.369Zm24.068 15.18c-.304 0-.539-.083-.705-.248a1.048 1.048 0 0 1-.249-.706v-27.084c0-.304.083-.539.249-.705.166-.194.401-.29.705-.29h10.12c3.125 0 5.6.732 7.424 2.198 1.825 1.465 2.738 3.636 2.738 6.512 0 2.129-.539 3.871-1.618 5.226-1.05 1.327-2.488 2.253-4.313 2.779l6.387 11.033c.083.166.125.318.125.456 0 .221-.097.415-.291.581a.797.797 0 0 1-.58.248H337.3c-.47 0-.816-.124-1.037-.373a6.97 6.97 0 0 1-.581-.746l-6.014-10.536h-7.258v10.701a.96.96 0 0 1-.291.706c-.166.165-.401.248-.705.248h-2.115Zm3.111-15.18h6.843c2.074 0 3.623-.429 4.646-1.286 1.023-.885 1.534-2.184 1.534-3.899 0-1.686-.511-2.972-1.534-3.857-.996-.885-2.544-1.327-4.646-1.327h-6.843v10.369Zm33.484 15.595c-2.351 0-4.369-.401-6.056-1.203-1.687-.829-2.986-2.087-3.899-3.774-.912-1.714-1.424-3.857-1.534-6.429a151.706 151.706 0 0 1-.042-3.484c0-1.134.014-2.309.042-3.526.11-2.543.636-4.659 1.576-6.345.967-1.715 2.295-2.987 3.981-3.816 1.715-.857 3.692-1.286 5.932-1.286 2.267 0 4.244.429 5.931 1.286 1.714.829 3.055 2.101 4.023 3.816.968 1.686 1.493 3.802 1.576 6.345.055 1.217.083 2.392.083 3.526 0 1.106-.028 2.267-.083 3.484-.083 2.572-.594 4.715-1.535 6.429-.912 1.687-2.212 2.945-3.898 3.774-1.687.802-3.719 1.203-6.097 1.203Zm0-3.525c2.129 0 3.857-.636 5.184-1.908 1.355-1.272 2.088-3.332 2.198-6.18.056-1.245.083-2.351.083-3.318 0-.996-.027-2.102-.083-3.319-.055-1.908-.414-3.456-1.078-4.645-.636-1.189-1.493-2.06-2.571-2.613-1.079-.553-2.323-.83-3.733-.83-1.355 0-2.572.277-3.65.83-1.079.553-1.95 1.424-2.613 2.613-.636 1.189-.996 2.737-1.079 4.645a150.956 150.956 0 0 0-.041 3.319c0 .967.014 2.073.041 3.318.111 2.848.844 4.908 2.198 6.18 1.355 1.272 3.07 1.908 5.144 1.908Zm18.613 3.11c-.305 0-.54-.083-.706-.248a1.053 1.053 0 0 1-.248-.706v-27.084c0-.304.083-.539.248-.705.166-.194.401-.29.706-.29h10.12c3.124 0 5.599.732 7.424 2.198 1.825 1.465 2.738 3.636 2.738 6.512 0 2.129-.54 3.871-1.618 5.226-1.051 1.327-2.489 2.253-4.313 2.779l6.387 11.033c.083.166.124.318.124.456 0 .221-.096.415-.29.581a.798.798 0 0 1-.581.248h-1.991c-.47 0-.815-.124-1.036-.373a6.843 6.843 0 0 1-.581-.746l-6.014-10.536h-7.259v10.701a.96.96 0 0 1-.29.706c-.166.165-.401.248-.705.248h-2.115Zm3.11-15.18h6.844c2.074 0 3.622-.429 4.645-1.286 1.023-.885 1.535-2.184 1.535-3.899 0-1.686-.512-2.972-1.535-3.857-.995-.885-2.544-1.327-4.645-1.327h-6.844v10.369Z" class="error"/>
    </g>
  </g>
  <defs>
    <radialGradient id="a" cx="0" cy="0" r="1" class="a" gradientTransform="matrix(240.61304 10.52222 -9.89105 226.17983 332.803 363.237)" gradientUnits="userSpaceOnUse">
      <stop stop-color="#662346"/>
      <stop offset=".166" stop-color="#662346"/>
      <stop offset="1" stop-color="#662346"/>
    </radialGradient>
    <radialGradient id="b" cx="0" cy="0" r="1" class="b" gradientTransform="matrix(240.61296 10.52407 -9.89322 226.18975 332.855 363.291)" gradientUnits="userSpaceOnUse">
      <stop stop-color="#662346"/>
      <stop offset=".166" stop-color="#662346"/>
      <stop offset="1" stop-color="#662346"/>
    </radialGradient>
  </defs>
</svg>
