<svg width="18" height="18" viewBox="0 0 18 18" fill="none" xmlns="http://www.w3.org/2000/svg">
<g clip-path="url(#clip0_388_167)">
<path d="M16.8749 2.98206H14.5604C14.4121 2.98209 14.2671 3.02609 14.1438 3.1085C14.0205 3.19092 13.9244 3.30804 13.8677 3.44506C13.8109 3.58209 13.7961 3.73286 13.825 3.87833C13.8539 4.02379 13.9253 4.15742 14.0302 4.26231L14.8447 5.07681L12.1552 7.76556C12.0123 7.90213 11.8222 7.97834 11.6245 7.97834C11.4269 7.97834 11.2368 7.90213 11.0939 7.76556L10.9664 7.63731C10.5379 7.22786 9.96799 6.99937 9.37529 6.99937C8.78259 6.99937 8.21271 7.22786 7.78417 7.63731L3.95917 11.4623C3.81824 11.6036 3.73922 11.7952 3.7395 11.9947C3.73978 12.1943 3.81934 12.3856 3.96067 12.5266C4.10199 12.6675 4.29352 12.7465 4.4931 12.7462C4.69269 12.7459 4.88399 12.6664 5.02492 12.5251L8.84992 8.70006C8.99273 8.56331 9.18282 8.48698 9.38054 8.48698C9.57826 8.48698 9.76835 8.56331 9.91117 8.70006L10.0387 8.82831C10.4674 9.23741 11.0372 9.46566 11.6298 9.46566C12.2224 9.46566 12.7922 9.23741 13.2209 8.82831L15.9104 6.13881L16.7249 6.95331C16.8302 7.05647 16.9635 7.12634 17.1082 7.15419C17.2529 7.18204 17.4026 7.16665 17.5386 7.10992C17.6746 7.05319 17.7909 6.95765 17.873 6.83523C17.955 6.7128 17.9992 6.56892 17.9999 6.42156V4.10706C17.9999 3.80869 17.8814 3.52254 17.6704 3.31156C17.4594 3.10058 17.1733 2.98206 16.8749 2.98206Z" fill="white"/>
<path d="M17.25 16.482H3.75C3.15326 16.482 2.58097 16.2449 2.15901 15.823C1.73705 15.401 1.5 14.8287 1.5 14.232V0.75C1.5 0.551088 1.42098 0.360322 1.28033 0.21967C1.13968 0.0790176 0.948912 0 0.75 0C0.551088 0 0.360322 0.0790176 0.21967 0.21967C0.0790176 0.360322 0 0.551088 0 0.75L0 14.232C0.00119089 15.2262 0.396661 16.1793 1.09966 16.8823C1.80267 17.5853 2.7558 17.9808 3.75 17.982H17.25C17.4489 17.982 17.6397 17.903 17.7803 17.7623C17.921 17.6217 18 17.4309 18 17.232C18 17.0331 17.921 16.8423 17.7803 16.7017C17.6397 16.561 17.4489 16.482 17.25 16.482Z" fill="white"/>
</g>
<defs>
<clipPath id="clip0_388_167">
<rect width="18" height="18" fill="white"/>
</clipPath>
</defs>
</svg>
