<svg width="40" height="40" viewBox="0 0 40 40" fill="none" xmlns="http://www.w3.org/2000/svg">
<path d="M20 38.4252C30.176 38.4252 38.4252 30.176 38.4252 20C38.4252 9.82407 30.176 1.57483 20 1.57483C9.82407 1.57483 1.57483 9.82407 1.57483 20C1.57483 30.176 9.82407 38.4252 20 38.4252Z" fill="url(#paint0_linear_102_1121)" stroke="url(#paint1_linear_102_1121)" stroke-width="2"/>
<path d="M20.4847 30.2362H15.405C15.3312 30.2362 15.2943 30.1901 15.2943 30.0978L15.3497 10.6234C15.3497 10.5496 15.3866 10.5127 15.4604 10.5127H20.9138C21.9749 10.5127 22.9392 10.7711 23.8065 11.2878C24.6554 11.8045 25.3245 12.492 25.8135 13.3501C26.3025 14.199 26.5471 15.1218 26.5471 16.1183C26.5471 16.9303 26.3625 17.687 25.9934 18.3883C25.6243 19.0895 25.186 19.657 24.6785 20.0907C25.2229 20.6351 25.6474 21.2672 25.9519 21.9869C26.2564 22.7067 26.4087 23.4633 26.4087 24.2569C26.4087 25.3549 26.1457 26.3561 25.6197 27.2604C25.0845 28.1647 24.3694 28.889 23.4743 29.4334C22.5793 29.9686 21.5828 30.2362 20.4847 30.2362ZM20.9138 13.8761H18.7546V18.3329H20.9138C21.5689 18.3329 22.0995 18.1022 22.5055 17.6409C22.9115 17.1702 23.1145 16.6627 23.1145 16.1183C23.1145 15.5186 22.8976 14.9972 22.4639 14.5543C22.0303 14.1021 21.5136 13.8761 20.9138 13.8761ZM20.4847 21.7655H18.7546L18.7269 26.7759H20.4847C21.1675 26.7759 21.7535 26.5268 22.2425 26.0285C22.7316 25.5302 22.9761 24.9397 22.9761 24.2569C22.9761 23.5741 22.7316 22.9881 22.2425 22.4991C21.7535 22.01 21.1675 21.7655 20.4847 21.7655Z" fill="url(#paint2_linear_102_1121)"/>
<defs>
<linearGradient id="paint0_linear_102_1121" x1="-10.6896" y1="1.7231" x2="58.1055" y2="16.6135" gradientUnits="userSpaceOnUse">
<stop stop-color="#FFE664"/>
<stop offset="1" stop-color="#FA8341"/>
</linearGradient>
<linearGradient id="paint1_linear_102_1121" x1="-2.2047" y1="1.41735" x2="42.0473" y2="40" gradientUnits="userSpaceOnUse">
<stop stop-color="#FFC164"/>
<stop offset="1" stop-color="#EE7532"/>
</linearGradient>
<linearGradient id="paint2_linear_102_1121" x1="12.1259" y1="8.35273" x2="24.5938" y2="34.4979" gradientUnits="userSpaceOnUse">
<stop stop-color="#E87A3D"/>
<stop offset="0.515625" stop-color="#C25B21"/>
<stop offset="1" stop-color="#943500"/>
</linearGradient>
</defs>
</svg>
