<svg width="20" height="20" viewBox="0 0 20 20" fill="none" xmlns="http://www.w3.org/2000/svg">
<g clip-path="url(#clip0_268_230)">
<path fill-rule="evenodd" clip-rule="evenodd" d="M10 0.246704C4.4775 0.246704 0 4.72337 0 10.2467C0 14.665 2.865 18.4134 6.83833 19.7359C7.33833 19.8284 7.52167 19.5192 7.52167 19.255C7.52167 19.0167 7.5125 18.2292 7.50833 17.3934C4.72667 17.9984 4.13917 16.2134 4.13917 16.2134C3.68417 15.0575 3.02917 14.75 3.02917 14.75C2.12167 14.1292 3.0975 14.1425 3.0975 14.1425C4.10167 14.2134 4.63 15.1734 4.63 15.1734C5.52167 16.7017 6.96917 16.26 7.54 16.0042C7.63 15.3575 7.88917 14.9167 8.175 14.6667C5.95417 14.4142 3.61917 13.5567 3.61917 9.72504C3.61917 8.63337 4.01 7.74087 4.65 7.04087C4.54583 6.78837 4.20333 5.7717 4.74667 4.3942C4.74667 4.3942 5.58667 4.12587 7.4975 5.4192C8.295 5.19754 9.15 5.0867 10 5.08254C10.85 5.0867 11.7058 5.19754 12.505 5.4192C14.4133 4.12504 15.2525 4.3942 15.2525 4.3942C15.7967 5.7717 15.4542 6.78837 15.3508 7.04087C15.9917 7.74087 16.38 8.63337 16.38 9.72504C16.38 13.5659 14.0408 14.4117 11.8142 14.6592C12.1725 14.9692 12.4925 15.5784 12.4925 16.5109C12.4925 17.8492 12.4808 18.9259 12.4808 19.255C12.4808 19.5209 12.6608 19.8334 13.1675 19.735C17.1392 18.4109 20.0008 14.6642 20.0008 10.2475C20 4.7242 15.5225 0.246704 10 0.246704Z" fill="#363F5F"/>
<path d="M3.78753 14.6051C3.76586 14.6551 3.68753 14.6701 3.61586 14.6359C3.54336 14.6034 3.50253 14.5351 3.52586 14.4859C3.54753 14.4351 3.62586 14.4209 3.69836 14.4551C3.77086 14.4867 3.81253 14.5551 3.78753 14.6051Z" fill="#363F5F"/>
<path d="M4.19262 15.0567C4.14512 15.1008 4.05178 15.08 3.98845 15.0108C3.92261 14.9408 3.91095 14.8475 3.95928 14.8033C4.00845 14.7592 4.09845 14.78 4.16428 14.85C4.23012 14.9192 4.24262 15.0117 4.19262 15.0567Z" fill="#363F5F"/>
<path d="M4.58676 15.6325C4.52509 15.675 4.42509 15.635 4.36343 15.5467C4.30176 15.4575 4.30176 15.3509 4.36509 15.3084C4.42676 15.2659 4.52593 15.3042 4.58843 15.3925C4.64926 15.4825 4.64926 15.5892 4.58676 15.6325Z" fill="#363F5F"/>
<path d="M5.12663 16.1892C5.07163 16.2501 4.95496 16.2334 4.86996 16.1509C4.78246 16.0701 4.75829 15.9559 4.81329 15.8951C4.86913 15.8342 4.98663 15.8517 5.07246 15.9334C5.15913 16.0142 5.18496 16.1292 5.12663 16.1892Z" fill="#363F5F"/>
<path d="M5.87256 16.5118C5.8484 16.5901 5.7359 16.6259 5.62256 16.5926C5.50923 16.5584 5.43506 16.4668 5.4584 16.3876C5.48173 16.3084 5.59506 16.2718 5.70923 16.3076C5.82173 16.3409 5.8959 16.4326 5.87256 16.5118Z" fill="#363F5F"/>
<path d="M6.69074 16.5717C6.69324 16.6542 6.59741 16.7225 6.47824 16.7242C6.35908 16.7267 6.26158 16.66 6.26074 16.5792C6.26074 16.4958 6.35491 16.4283 6.47408 16.4258C6.59324 16.4233 6.69074 16.49 6.69074 16.5717Z" fill="#363F5F"/>
<path d="M7.45244 16.4426C7.4666 16.5226 7.3841 16.6059 7.26577 16.6276C7.14994 16.6493 7.04244 16.5993 7.02744 16.5193C7.01327 16.4368 7.09744 16.3543 7.21327 16.3326C7.33077 16.3118 7.43744 16.3601 7.45244 16.4426Z" fill="#363F5F"/>
</g>
<defs>
<clipPath id="clip0_268_230">
<rect width="20" height="20" fill="white"/>
</clipPath>
</defs>
</svg>
