<svg width="20" height="20" viewBox="0 0 20 20" fill="none" xmlns="http://www.w3.org/2000/svg">
<g clip-path="url(#clip0_218_255)">
<path fill-rule="evenodd" clip-rule="evenodd" d="M10 0.246674C4.4775 0.246674 0 4.72334 0 10.2467C0 14.665 2.865 18.4133 6.83833 19.7358C7.33833 19.8283 7.52167 19.5192 7.52167 19.255C7.52167 19.0167 7.5125 18.2292 7.50833 17.3933C4.72667 17.9983 4.13917 16.2133 4.13917 16.2133C3.68417 15.0575 3.02917 14.75 3.02917 14.75C2.12167 14.1292 3.0975 14.1425 3.0975 14.1425C4.10167 14.2133 4.63 15.1733 4.63 15.1733C5.52167 16.7017 6.96917 16.26 7.54 16.0042C7.63 15.3575 7.88917 14.9167 8.175 14.6667C5.95417 14.4142 3.61917 13.5567 3.61917 9.72501C3.61917 8.63334 4.01 7.74084 4.65 7.04084C4.54583 6.78834 4.20333 5.77167 4.74667 4.39417C4.74667 4.39417 5.58667 4.12584 7.4975 5.41917C8.295 5.19751 9.15 5.08667 10 5.08251C10.85 5.08667 11.7058 5.19751 12.505 5.41917C14.4133 4.12501 15.2525 4.39417 15.2525 4.39417C15.7967 5.77167 15.4542 6.78834 15.3508 7.04084C15.9917 7.74084 16.38 8.63334 16.38 9.72501C16.38 13.5658 14.0408 14.4117 11.8142 14.6592C12.1725 14.9692 12.4925 15.5783 12.4925 16.5108C12.4925 17.8492 12.4808 18.9258 12.4808 19.255C12.4808 19.5208 12.6608 19.8333 13.1675 19.735C17.1392 18.4108 20.0008 14.6642 20.0008 10.2475C20 4.72417 15.5225 0.246674 10 0.246674Z" fill="#363F5F"/>
<path d="M3.78728 14.605C3.76562 14.655 3.68728 14.67 3.61562 14.6358C3.54312 14.6033 3.50228 14.535 3.52562 14.4858C3.54728 14.435 3.62562 14.4208 3.69812 14.455C3.77062 14.4867 3.81228 14.555 3.78728 14.605Z" fill="#363F5F"/>
<path d="M4.19262 15.0567C4.14512 15.1009 4.05178 15.08 3.98845 15.0109C3.92261 14.9409 3.91095 14.8475 3.95928 14.8034C4.00845 14.7592 4.09845 14.78 4.16428 14.85C4.23012 14.9192 4.24262 15.0117 4.19262 15.0567Z" fill="#363F5F"/>
<path d="M4.58676 15.6325C4.52509 15.675 4.42509 15.635 4.36343 15.5467C4.30176 15.4575 4.30176 15.3509 4.36509 15.3084C4.42676 15.2659 4.52593 15.3042 4.58843 15.3925C4.64926 15.4825 4.64926 15.5892 4.58676 15.6325Z" fill="#363F5F"/>
<path d="M5.12687 16.1892C5.07187 16.25 4.95521 16.2333 4.87021 16.1508C4.78271 16.07 4.75854 15.9558 4.81354 15.895C4.86937 15.8342 4.98687 15.8517 5.07271 15.9333C5.15937 16.0142 5.18521 16.1292 5.12687 16.1892Z" fill="#363F5F"/>
<path d="M5.87256 16.5117C5.8484 16.59 5.7359 16.6258 5.62256 16.5925C5.50923 16.5583 5.43506 16.4667 5.4584 16.3875C5.48173 16.3083 5.59506 16.2717 5.70923 16.3075C5.82173 16.3408 5.8959 16.4325 5.87256 16.5117Z" fill="#363F5F"/>
<path d="M6.69074 16.5717C6.69324 16.6542 6.59741 16.7225 6.47824 16.7242C6.35908 16.7267 6.26158 16.66 6.26074 16.5792C6.26074 16.4958 6.35491 16.4283 6.47408 16.4258C6.59324 16.4233 6.69074 16.49 6.69074 16.5717Z" fill="#363F5F"/>
<path d="M7.45244 16.4425C7.4666 16.5225 7.3841 16.6058 7.26577 16.6275C7.14994 16.6492 7.04244 16.5992 7.02744 16.5192C7.01327 16.4367 7.09744 16.3542 7.21327 16.3325C7.33077 16.3117 7.43744 16.36 7.45244 16.4425Z" fill="#363F5F"/>
</g>
<defs>
<clipPath id="clip0_218_255">
<rect width="20" height="20" fill="white"/>
</clipPath>
</defs>
</svg>
