<svg width="20" height="20" viewBox="0 0 20 20" fill="none" xmlns="http://www.w3.org/2000/svg">
<g clip-path="url(#clip0_218_265)">
<path d="M10.3993 11.8875V9.155H19.6068C19.6968 9.63083 19.7435 10.1942 19.7435 10.8042C19.7435 12.8542 19.1835 15.3892 17.3768 17.195C15.6202 19.0242 13.376 20 10.4027 20C4.891 20 0.256836 15.5108 0.256836 10C0.256836 4.48917 4.891 0 10.4027 0C13.4518 0 15.6235 1.19667 17.2552 2.75583L15.3268 4.68333C14.1568 3.58583 12.571 2.7325 10.3993 2.7325C6.37517 2.7325 3.22767 5.97583 3.22767 10C3.22767 14.0242 6.37517 17.2675 10.3993 17.2675C13.0093 17.2675 14.496 16.2192 15.4485 15.2667C16.221 14.4942 16.7293 13.3908 16.9293 11.8842L10.3993 11.8875Z" fill="#363F5F"/>
</g>
<defs>
<clipPath id="clip0_218_265">
<rect width="20" height="20" fill="white"/>
</clipPath>
</defs>
</svg>
