<svg width="24" height="24" viewBox="0 0 24 24" fill="none" xmlns="http://www.w3.org/2000/svg">
<path d="M21 12.424V11C21 8.61305 20.0517 6.32387 18.3639 4.63604C16.6761 2.94821 14.3869 2 12 2C9.613 2 7.32382 2.94821 5.63599 4.63604C3.94816 6.32387 2.99995 8.61305 2.99995 11V12.424C1.95111 12.8858 1.09275 13.694 0.568572 14.7131C0.0443932 15.7322 -0.113788 16.9004 0.120508 18.0222C0.354805 19.1441 0.967358 20.1513 1.85562 20.8755C2.74388 21.5996 3.85394 21.9966 4.99995 22C5.53038 22 6.03909 21.7893 6.41417 21.4142C6.78924 21.0391 6.99995 20.5304 6.99995 20V14C6.99995 13.4696 6.78924 12.9609 6.41417 12.5858C6.03909 12.2107 5.53038 12 4.99995 12V11C4.99995 9.14349 5.73745 7.36301 7.0502 6.05025C8.36296 4.7375 10.1434 4 12 4C13.8565 4 15.6369 4.7375 16.9497 6.05025C18.2625 7.36301 19 9.14349 19 11V12C18.4695 12 17.9608 12.2107 17.5857 12.5858C17.2107 12.9609 17 13.4696 17 14V20H14C13.7347 20 13.4804 20.1054 13.2928 20.2929C13.1053 20.4804 13 20.7348 13 21C13 21.2652 13.1053 21.5196 13.2928 21.7071C13.4804 21.8946 13.7347 22 14 22H19C20.146 21.9966 21.256 21.5996 22.1443 20.8755C23.0325 20.1513 23.6451 19.1441 23.8794 18.0222C24.1137 16.9004 23.9555 15.7322 23.4313 14.7131C22.9072 13.694 22.0488 12.8858 21 12.424ZM4.99995 20C4.2043 20 3.44124 19.6839 2.87863 19.1213C2.31602 18.5587 1.99995 17.7957 1.99995 17C1.99995 16.2044 2.31602 15.4413 2.87863 14.8787C3.44124 14.3161 4.2043 14 4.99995 14V20ZM19 20V14C19.7956 14 20.5587 14.3161 21.1213 14.8787C21.6839 15.4413 22 16.2044 22 17C22 17.7957 21.6839 18.5587 21.1213 19.1213C20.5587 19.6839 19.7956 20 19 20Z" fill="#363F5F"/>
</svg>
