<svg width="32" height="24" viewBox="0 0 32 24" fill="none" xmlns="http://www.w3.org/2000/svg">
<path d="M16 14.9943C14.3432 14.9943 13 16.3383 13 17.9961V23.9999H19V17.9961C19 16.3383 17.6568 14.9943 16 14.9943Z" fill="white" fill-opacity="0.5"/>
<path d="M21 17.9963V24H25C26.6568 24 28 22.656 28 20.9981V11.8715C28.0002 11.3516 27.7983 10.8521 27.437 10.4786L18.939 1.28584C17.4396 -0.337513 14.9089 -0.437185 13.2865 1.06319C13.2095 1.13448 13.1352 1.20873 13.064 1.28584L4.58102 10.4756C4.20873 10.8506 3.99986 11.3579 4 11.8865V20.9981C4 22.656 5.34316 24 7 24H11V17.9963C11.0187 15.2678 13.2203 13.0396 15.8784 12.9754C18.6255 12.9091 20.9791 15.1752 21 17.9963Z" fill="white" fill-opacity="0.5"/>
<path d="M16 14.9943C14.3432 14.9943 13 16.3383 13 17.9961V23.9999H19V17.9961C19 16.3383 17.6568 14.9943 16 14.9943Z" fill="white" fill-opacity="0.5"/>
</svg>
