<svg width="20" height="20" viewBox="0 0 20 20" fill="none" xmlns="http://www.w3.org/2000/svg">
<path d="M10 1.80167C12.67 1.80167 12.9867 1.81167 14.0408 1.86C15.1308 1.91 16.2533 2.15833 17.0475 2.9525C17.8492 3.75417 18.09 4.86583 18.14 5.95917C18.1883 7.01333 18.1983 7.33 18.1983 10C18.1983 12.67 18.1883 12.9867 18.14 14.0408C18.0908 15.125 17.8367 16.2583 17.0475 17.0475C16.2458 17.8492 15.135 18.09 14.0408 18.14C12.9867 18.1883 12.67 18.1983 10 18.1983C7.33 18.1983 7.01333 18.1883 5.95917 18.14C4.88333 18.0908 3.735 17.8308 2.9525 17.0475C2.155 16.25 1.91 15.1275 1.86 14.0408C1.81167 12.9867 1.80167 12.67 1.80167 10C1.80167 7.33 1.81167 7.01333 1.86 5.95917C1.90917 4.87917 2.16583 3.73917 2.9525 2.9525C3.7525 2.1525 4.86833 1.91 5.95917 1.86C7.01333 1.81167 7.33 1.80167 10 1.80167ZM10 0C7.28417 0 6.94333 0.0116667 5.87667 0.06C4.33083 0.130833 2.79583 0.560833 1.67833 1.67833C0.556667 2.8 0.130833 4.33167 0.06 5.87667C0.0116667 6.94333 0 7.28417 0 10C0 12.7158 0.0116667 13.0567 0.06 14.1233C0.130833 15.6675 0.5625 17.2067 1.67833 18.3217C2.79917 19.4425 4.33333 19.8692 5.87667 19.94C6.94333 19.9883 7.28417 20 10 20C12.7158 20 13.0567 19.9883 14.1233 19.94C15.6683 19.8692 17.205 19.4383 18.3217 18.3217C19.4442 17.1992 19.8692 15.6683 19.94 14.1233C19.9883 13.0567 20 12.7158 20 10C20 7.28417 19.9883 6.94333 19.94 5.87667C19.8692 4.33083 19.4383 2.795 18.3217 1.67833C17.2025 0.559167 15.6642 0.13 14.1233 0.06C13.0567 0.0116667 12.7158 0 10 0Z" fill="#363F5F"/>
<path d="M9.99999 4.86499C7.16416 4.86499 4.86499 7.16416 4.86499 9.99999C4.86499 12.8358 7.16416 15.135 9.99999 15.135C12.8358 15.135 15.135 12.8358 15.135 9.99999C15.135 7.16416 12.8358 4.86499 9.99999 4.86499ZM9.99999 13.3333C8.15916 13.3333 6.66666 11.8408 6.66666 9.99999C6.66666 8.15916 8.15916 6.66666 9.99999 6.66666C11.8408 6.66666 13.3333 8.15916 13.3333 9.99999C13.3333 11.8408 11.8408 13.3333 9.99999 13.3333Z" fill="#363F5F"/>
<path d="M15.3384 5.86167C16.0012 5.86167 16.5384 5.32441 16.5384 4.66167C16.5384 3.99893 16.0012 3.46167 15.3384 3.46167C14.6757 3.46167 14.1384 3.99893 14.1384 4.66167C14.1384 5.32441 14.6757 5.86167 15.3384 5.86167Z" fill="#363F5F"/>
</svg>
