<svg width="32" height="24" viewBox="0 0 32 24" fill="none" xmlns="http://www.w3.org/2000/svg">
<path d="M25.3333 1.89893H6.66667C4.89921 1.90093 3.20474 2.56671 1.95496 3.75021C0.705176 4.93372 0.00211714 6.53833 0 8.21206L0 15.7878C0.00211714 17.4615 0.705176 19.0662 1.95496 20.2497C3.20474 21.4332 4.89921 22.0989 6.66667 22.1009H25.3333C27.1008 22.0989 28.7953 21.4332 30.045 20.2497C31.2948 19.0662 31.9979 17.4615 32 15.7878V8.21206C31.9979 6.53833 31.2948 4.93372 30.045 3.75021C28.7953 2.56671 27.1008 1.90093 25.3333 1.89893ZM5.33333 18.3131C5.06962 18.3131 4.81184 18.239 4.59257 18.1003C4.37331 17.9615 4.20241 17.7643 4.10149 17.5336C4.00058 17.3029 3.97417 17.049 4.02562 16.8041C4.07707 16.5592 4.20405 16.3342 4.39052 16.1576C4.57699 15.981 4.81457 15.8608 5.07321 15.8121C5.33185 15.7634 5.59994 15.7884 5.84358 15.8839C6.08721 15.9795 6.29545 16.1413 6.44196 16.349C6.58847 16.5566 6.66667 16.8007 6.66667 17.0504C6.66667 17.3853 6.52619 17.7065 6.27614 17.9433C6.02609 18.18 5.68696 18.3131 5.33333 18.3131ZM5.33333 8.21206C5.06962 8.21206 4.81184 8.138 4.59257 7.99927C4.37331 7.86053 4.20241 7.66333 4.10149 7.43262C4.00058 7.2019 3.97417 6.94803 4.02562 6.7031C4.07707 6.45818 4.20405 6.2332 4.39052 6.05662C4.57699 5.88004 4.81457 5.75978 5.07321 5.71107C5.33185 5.66235 5.59994 5.68735 5.84358 5.78292C6.08721 5.87848 6.29545 6.04032 6.44196 6.24795C6.58847 6.45559 6.66667 6.69971 6.66667 6.94943C6.66667 7.2843 6.52619 7.60545 6.27614 7.84224C6.02609 8.07903 5.68696 8.21206 5.33333 8.21206ZM16 17.0504C14.9452 17.0504 13.914 16.7542 13.037 16.1993C12.1599 15.6443 11.4763 14.8555 11.0726 13.9327C10.669 13.0098 10.5634 11.9943 10.7691 11.0146C10.9749 10.0349 11.4829 9.13501 12.2288 8.42869C12.9746 7.72236 13.925 7.24135 14.9595 7.04647C15.9941 6.8516 17.0664 6.95162 18.041 7.33388C19.0155 7.71614 19.8485 8.36347 20.4345 9.19403C21.0205 10.0246 21.3333 11.001 21.3333 11.9999C21.3333 13.3394 20.7714 14.624 19.7712 15.5712C18.771 16.5183 17.4145 17.0504 16 17.0504ZM26.6667 18.3131C26.403 18.3131 26.1452 18.239 25.9259 18.1003C25.7066 17.9615 25.5357 17.7643 25.4348 17.5336C25.3339 17.3029 25.3075 17.049 25.359 16.8041C25.4104 16.5592 25.5374 16.3342 25.7239 16.1576C25.9103 15.981 26.1479 15.8608 26.4065 15.8121C26.6652 15.7634 26.9333 15.7884 27.1769 15.8839C27.4205 15.9795 27.6288 16.1413 27.7753 16.349C27.9218 16.5566 28 16.8007 28 17.0504C28 17.3853 27.8595 17.7065 27.6095 17.9433C27.3594 18.18 27.0203 18.3131 26.6667 18.3131ZM26.6667 8.21206C26.403 8.21206 26.1452 8.138 25.9259 7.99927C25.7066 7.86053 25.5357 7.66333 25.4348 7.43262C25.3339 7.2019 25.3075 6.94803 25.359 6.7031C25.4104 6.45818 25.5374 6.2332 25.7239 6.05662C25.9103 5.88004 26.1479 5.75978 26.4065 5.71107C26.6652 5.66235 26.9333 5.68735 27.1769 5.78292C27.4205 5.87848 27.6288 6.04032 27.7753 6.24795C27.9218 6.45559 28 6.69971 28 6.94943C28 7.2843 27.8595 7.60545 27.6095 7.84224C27.3594 8.07903 27.0203 8.21206 26.6667 8.21206ZM18.6667 11.9999C18.6667 12.4994 18.5103 12.9876 18.2173 13.4029C17.9242 13.8182 17.5078 14.1418 17.0205 14.333C16.5332 14.5241 15.997 14.5741 15.4798 14.4767C14.9625 14.3792 14.4873 14.1387 14.1144 13.7856C13.7414 13.4324 13.4875 12.9824 13.3846 12.4926C13.2817 12.0027 13.3345 11.495 13.5363 11.0336C13.7382 10.5721 14.0799 10.1777 14.5185 9.90026C14.957 9.62279 15.4726 9.47468 16 9.47468C16.7072 9.47468 17.3855 9.74074 17.8856 10.2143C18.3857 10.6879 18.6667 11.3302 18.6667 11.9999Z" fill="white" fill-opacity="0.5"/>
</svg>
