<svg width="60" height="60" viewBox="0 0 60 60" fill="none" xmlns="http://www.w3.org/2000/svg">
<circle cx="30" cy="30" r="30" fill="#CC7133"/>
<g clip-path="url(#clip0_242_59)">
<path d="M30.1514 30.1515C34.3354 30.1515 37.7272 26.7597 37.7272 22.5758C37.7272 18.3918 34.3354 15 30.1514 15C25.9675 15 22.5757 18.3918 22.5757 22.5758C22.5757 26.7597 25.9675 30.1515 30.1514 30.1515Z" fill="white"/>
<path d="M30.1515 32.6768C23.8784 32.6838 18.7948 37.7673 18.7878 44.0404C18.7878 44.7377 19.3531 45.303 20.0504 45.303H40.2524C40.9498 45.303 41.5151 44.7377 41.5151 44.0404C41.5081 37.7673 36.4246 32.6837 30.1515 32.6768Z" fill="white"/>
</g>
<defs>
<clipPath id="clip0_242_59">
<rect width="30.303" height="30.303" fill="white" transform="translate(15 15)"/>
</clipPath>
</defs>
</svg>
