<svg width="18" height="18" viewBox="0 0 18 18" fill="none" xmlns="http://www.w3.org/2000/svg">
<g clip-path="url(#clip0_388_193)">
<path d="M16.7197 9.52504L15.9052 10.3395L13.2165 7.65004C12.7878 7.24116 12.2181 7.01304 11.6257 7.01304C11.0333 7.01304 10.4636 7.24116 10.035 7.65004L9.9052 7.77979C9.76243 7.91632 9.5725 7.99251 9.37495 7.99251C9.17741 7.99251 8.98748 7.91632 8.8447 7.77979L5.03995 3.97054C4.97077 3.89891 4.88801 3.84177 4.79651 3.80247C4.705 3.76316 4.60659 3.74247 4.50701 3.74161C4.40742 3.74074 4.30866 3.75972 4.21649 3.79743C4.12432 3.83514 4.04058 3.89083 3.97016 3.96125C3.89974 4.03167 3.84405 4.11541 3.80634 4.20758C3.76863 4.29975 3.74965 4.39851 3.75052 4.49809C3.75138 4.59768 3.77207 4.69609 3.81138 4.7876C3.85069 4.8791 3.90782 4.96186 3.97945 5.03104L7.78345 8.83579C8.21204 9.24485 8.78174 9.47308 9.3742 9.47308C9.96667 9.47308 10.5364 9.24485 10.965 8.83579L11.0947 8.70604C11.2375 8.56952 11.4274 8.49333 11.625 8.49333C11.8225 8.49333 12.0124 8.56952 12.1552 8.70604L14.8447 11.4L14.0302 12.2145C13.9253 12.3194 13.8539 12.4531 13.825 12.5985C13.7961 12.744 13.8109 12.8948 13.8677 13.0318C13.9244 13.1688 14.0206 13.2859 14.1439 13.3683C14.2672 13.4508 14.4121 13.4948 14.5605 13.4948H16.875C17.1733 13.4948 17.4595 13.3763 17.6704 13.1653C17.8814 12.9543 18 12.6682 18 12.3698V10.05C17.9989 9.90218 17.9541 9.75793 17.8713 9.63542C17.7885 9.51291 17.6713 9.41762 17.5345 9.36151C17.3977 9.30541 17.2474 9.291 17.1024 9.3201C16.9574 9.34919 16.8243 9.4205 16.7197 9.52504Z" fill="white"/>
<path d="M17.25 16.482H3.75C3.15326 16.482 2.58097 16.2449 2.15901 15.823C1.73705 15.401 1.5 14.8287 1.5 14.232V0.75C1.5 0.551088 1.42098 0.360322 1.28033 0.21967C1.13968 0.0790176 0.948912 0 0.75 0C0.551088 0 0.360322 0.0790176 0.21967 0.21967C0.0790176 0.360322 0 0.551088 0 0.75L0 14.232C0.00119089 15.2262 0.396661 16.1793 1.09966 16.8823C1.80267 17.5853 2.7558 17.9808 3.75 17.982H17.25C17.4489 17.982 17.6397 17.903 17.7803 17.7623C17.921 17.6217 18 17.4309 18 17.232C18 17.0331 17.921 16.8423 17.7803 16.7017C17.6397 16.561 17.4489 16.482 17.25 16.482Z" fill="white"/>
</g>
<defs>
<clipPath id="clip0_388_193">
<rect width="18" height="18" fill="white"/>
</clipPath>
</defs>
</svg>
